STARTFONT 2.1
FONT -Adobe-Times-Bold-R-Normal--17-120-100-100-P-88-ISO10646-1
SIZE 12 100 100
FONTBOUNDINGBOX 19 27 -2 -7
COMMENT ISO10646-1 extension by Markus Kuhn <mkuhn@acm.org>, 2001-03-20
COMMENT 
COMMENT +
COMMENT  Copyright 1984-1989, 1994 Adobe Systems Incorporated.
COMMENT  Copyright 1988, 1994 Digital Equipment Corporation.
COMMENT
COMMENT  Adobe is a trademark of Adobe Systems Incorporated which may be
COMMENT  registered in certain jurisdictions.
COMMENT  Permission to use these trademarks is hereby granted only in
COMMENT  association with the images described in this file.
COMMENT
COMMENT  Permission to use, copy, modify, distribute and sell this software
COMMENT  and its documentation for any purpose and without fee is hereby
COMMENT  granted, provided that the above copyright notices appear in all
COMMENT  copies and that both those copyright notices and this permission
COMMENT  notice appear in supporting documentation, and that the names of
COMMENT  Adobe Systems and Digital Equipment Corporation not be used in
COMMENT  advertising or publicity pertaining to distribution of the software
COMMENT  without specific, written prior permission.  Adobe Systems and
COMMENT  Digital Equipment Corporation make no representations about the
COMMENT  suitability of this software for any purpose.  It is provided "as
COMMENT  is" without express or implied warranty.
COMMENT -
STARTPROPERTIES 26
FOUNDRY "Adobe"
FAMILY_NAME "Times"
WEIGHT_NAME "Bold"
SLANT "R"
SETWIDTH_NAME "Normal"
ADD_STYLE_NAME ""
PIXEL_SIZE 17
POINT_SIZE 120
RESOLUTION_X 100
RESOLUTION_Y 100
SPACING "P"
AVERAGE_WIDTH 88
CHARSET_REGISTRY "ISO10646"
CHARSET_ENCODING "1"
CAP_HEIGHT 11
X_HEIGHT 8
FONT_ASCENT 14
FONT_DESCENT 4
FACE_NAME "Times Bold"
COPYRIGHT "Copyright (c) 1984, 1987 Adobe Systems Incorporated. All Rights Reserved. Copyright (c) 1988, 1991 Digital Equipment Corporation. All Rights Reserved."
NOTICE "Times is a trademark of Linotype-Hell AG and/or its subsidiaries."

STARTCHAR char0
ENCODING 0
SWIDTH 778 0
DWIDTH 12 0
BBX 9 11 1 0
BITMAP
AA80
0000
8080
0000
8080
0000
8080
0000
8080
0000
AA80
ENDCHAR
STARTCHAR space
ENCODING 32
SWIDTH 250 0
DWIDTH 5 0
BBX 1 1 0 0
BITMAP
00
ENDCHAR
STARTCHAR exclam
ENCODING 33
SWIDTH 333 0
DWIDTH 6 0
BBX 2 11 2 0
BITMAP
C0
C0
C0
C0
C0
80
80
00
00
C0
C0
ENDCHAR
STARTCHAR quotedbl
ENCODING 34
SWIDTH 555 0
DWIDTH 9 0
BBX 5 5 1 6
BITMAP
D8
D8
D8
90
90
ENDCHAR
STARTCHAR numbersign
ENCODING 35
SWIDTH 500 0
DWIDTH 8 0
BBX 8 11 0 0
BITMAP
12
12
12
7F
24
24
24
FE
48
48
48
ENDCHAR
STARTCHAR dollar
ENCODING 36
SWIDTH 500 0
DWIDTH 8 0
BBX 7 13 0 -1
BITMAP
10
7A
96
D2
F0
78
3C
1E
16
92
D2
BC
10
ENDCHAR
STARTCHAR percent
ENCODING 37
SWIDTH 1000 0
DWIDTH 16 0
BBX 12 12 2 0
BITMAP
3080
6F00
C900
C900
CA00
D260
64D0
0990
0990
1190
11A0
20C0
ENDCHAR
STARTCHAR ampersand
ENCODING 38
SWIDTH 833 0
DWIDTH 14 0
BBX 10 11 2 0
BITMAP
1C00
2600
2600
3400
39C0
7880
9C80
8D00
C640
E7C0
7B80
ENDCHAR
STARTCHAR quotesingle
ENCODING 39
SWIDTH 278 0
DWIDTH 5 0
BBX 2 5 2 6
BITMAP
C0
C0
C0
80
80
ENDCHAR
STARTCHAR parenleft
ENCODING 40
SWIDTH 333 0
DWIDTH 6 0
BBX 4 14 1 -3
BITMAP
10
20
60
40
C0
C0
C0
C0
C0
C0
40
60
20
10
ENDCHAR
STARTCHAR parenright
ENCODING 41
SWIDTH 333 0
DWIDTH 6 0
BBX 4 14 0 -3
BITMAP
80
40
60
20
30
30
30
30
30
30
20
60
40
80
ENDCHAR
STARTCHAR asterisk
ENCODING 42
SWIDTH 500 0
DWIDTH 8 0
BBX 5 7 1 4
BITMAP
20
A8
F8
70
F8
A8
20
ENDCHAR
STARTCHAR plus
ENCODING 43
SWIDTH 570 0
DWIDTH 9 0
BBX 7 8 1 0
BITMAP
10
10
10
FE
FE
10
10
10
ENDCHAR
STARTCHAR comma
ENCODING 44
SWIDTH 250 0
DWIDTH 4 0
BBX 2 5 1 -3
BITMAP
C0
C0
40
40
80
ENDCHAR
STARTCHAR hyphen
ENCODING 45
SWIDTH 333 0
DWIDTH 5 0
BBX 4 2 0 3
BITMAP
F0
F0
ENDCHAR
STARTCHAR period
ENCODING 46
SWIDTH 250 0
DWIDTH 4 0
BBX 2 2 1 0
BITMAP
C0
C0
ENDCHAR
STARTCHAR slash
ENCODING 47
SWIDTH 278 0
DWIDTH 5 0
BBX 4 11 0 0
BITMAP
10
30
20
20
60
40
40
40
C0
80
80
ENDCHAR
STARTCHAR zero
ENCODING 48
SWIDTH 500 0
DWIDTH 8 0
BBX 6 11 1 0
BITMAP
30
48
CC
CC
CC
CC
CC
CC
CC
48
30
ENDCHAR
STARTCHAR one
ENCODING 49
SWIDTH 500 0
DWIDTH 8 0
BBX 6 11 1 0
BITMAP
10
F0
30
30
30
30
30
30
30
30
FC
ENDCHAR
STARTCHAR two
ENCODING 50
SWIDTH 500 0
DWIDTH 8 0
BBX 7 11 0 0
BITMAP
38
7C
9C
0C
0C
08
18
10
22
7C
FC
ENDCHAR
STARTCHAR three
ENCODING 51
SWIDTH 500 0
DWIDTH 8 0
BBX 7 11 0 0
BITMAP
38
7C
8C
08
10
3C
0E
06
C6
CC
78
ENDCHAR
STARTCHAR four
ENCODING 52
SWIDTH 500 0
DWIDTH 8 0
BBX 7 11 0 0
BITMAP
04
0C
1C
2C
2C
4C
8C
FE
FE
0C
0C
ENDCHAR
STARTCHAR five
ENCODING 53
SWIDTH 500 0
DWIDTH 8 0
BBX 8 11 0 0
BITMAP
1F
3E
20
38
7C
0E
06
06
C6
CC
70
ENDCHAR
STARTCHAR six
ENCODING 54
SWIDTH 500 0
DWIDTH 8 0
BBX 6 11 1 0
BITMAP
0C
30
60
60
F0
CC
CC
CC
CC
48
30
ENDCHAR
STARTCHAR seven
ENCODING 55
SWIDTH 500 0
DWIDTH 8 0
BBX 7 11 0 0
BITMAP
7E
7E
84
04
0C
08
08
18
10
30
20
ENDCHAR
STARTCHAR eight
ENCODING 56
SWIDTH 500 0
DWIDTH 8 0
BBX 7 11 0 0
BITMAP
38
44
C6
E4
78
3C
4E
C6
C6
44
38
ENDCHAR
STARTCHAR nine
ENCODING 57
SWIDTH 500 0
DWIDTH 8 0
BBX 6 11 1 0
BITMAP
30
48
CC
CC
CC
CC
7C
18
18
30
C0
ENDCHAR
STARTCHAR colon
ENCODING 58
SWIDTH 333 0
DWIDTH 5 0
BBX 2 7 1 0
BITMAP
C0
C0
00
00
00
C0
C0
ENDCHAR
STARTCHAR semicolon
ENCODING 59
SWIDTH 333 0
DWIDTH 5 0
BBX 2 10 1 -3
BITMAP
C0
C0
00
00
00
C0
C0
40
40
80
ENDCHAR
STARTCHAR less
ENCODING 60
SWIDTH 570 0
DWIDTH 9 0
BBX 8 8 0 0
BITMAP
03
0E
38
C0
C0
38
0E
03
ENDCHAR
STARTCHAR equal
ENCODING 61
SWIDTH 570 0
DWIDTH 9 0
BBX 7 5 1 2
BITMAP
FE
FE
00
FE
FE
ENDCHAR
STARTCHAR greater
ENCODING 62
SWIDTH 570 0
DWIDTH 9 0
BBX 8 8 0 0
BITMAP
C0
70
1C
03
03
1C
70
C0
ENDCHAR
STARTCHAR question
ENCODING 63
SWIDTH 500 0
DWIDTH 8 0
BBX 6 11 1 0
BITMAP
38
CC
CC
0C
0C
08
10
20
00
60
60
ENDCHAR
STARTCHAR at
ENCODING 64
SWIDTH 930 0
DWIDTH 16 0
BBX 13 13 1 -2
BITMAP
0780
1C60
3010
6750
CCC8
D8C8
D888
D990
D9B0
4EE0
2000
1860
0780
ENDCHAR
STARTCHAR A
ENCODING 65
SWIDTH 722 0
DWIDTH 12 0
BBX 11 11 0 0
BITMAP
0400
0E00
0E00
1B00
1300
3300
2180
7F80
40C0
C0C0
E1E0
ENDCHAR
STARTCHAR B
ENCODING 66
SWIDTH 667 0
DWIDTH 10 0
BBX 9 11 1 0
BITMAP
FC00
6600
6300
6300
6600
7E00
6300
6180
6180
6300
FE00
ENDCHAR
STARTCHAR C
ENCODING 67
SWIDTH 722 0
DWIDTH 11 0
BBX 9 11 1 0
BITMAP
1E80
6380
4180
C080
C000
C000
C000
C000
6080
7300
3E00
ENDCHAR
STARTCHAR D
ENCODING 68
SWIDTH 722 0
DWIDTH 11 0
BBX 9 11 1 0
BITMAP
FC00
6600
6300
6180
6180
6180
6180
6180
6300
6600
FC00
ENDCHAR
STARTCHAR E
ENCODING 69
SWIDTH 667 0
DWIDTH 10 0
BBX 8 11 1 0
BITMAP
FF
63
61
60
62
7E
62
60
61
63
FF
ENDCHAR
STARTCHAR F
ENCODING 70
SWIDTH 611 0
DWIDTH 10 0
BBX 8 11 1 0
BITMAP
FF
63
61
60
62
7E
62
60
60
60
F8
ENDCHAR
STARTCHAR G
ENCODING 71
SWIDTH 778 0
DWIDTH 12 0
BBX 10 11 1 0
BITMAP
1E80
6380
4180
C080
C000
C000
C7C0
C180
C180
6180
3F00
ENDCHAR
STARTCHAR H
ENCODING 72
SWIDTH 778 0
DWIDTH 12 0
BBX 10 11 1 0
BITMAP
F3C0
6180
6180
6180
6180
7F80
6180
6180
6180
6180
F3C0
ENDCHAR
STARTCHAR I
ENCODING 73
SWIDTH 389 0
DWIDTH 6 0
BBX 4 11 1 0
BITMAP
F0
60
60
60
60
60
60
60
60
60
F0
ENDCHAR
STARTCHAR J
ENCODING 74
SWIDTH 500 0
DWIDTH 8 0
BBX 6 13 1 -2
BITMAP
3C
18
18
18
18
18
18
18
18
18
D8
D0
60
ENDCHAR
STARTCHAR K
ENCODING 75
SWIDTH 778 0
DWIDTH 13 0
BBX 11 11 1 0
BITMAP
FBC0
6100
6200
6400
6800
7800
6C00
6600
6300
6180
FBE0
ENDCHAR
STARTCHAR L
ENCODING 76
SWIDTH 667 0
DWIDTH 11 0
BBX 9 11 1 0
BITMAP
F000
6000
6000
6000
6000
6000
6000
6080
6080
6180
FF80
ENDCHAR
STARTCHAR M
ENCODING 77
SWIDTH 944 0
DWIDTH 15 0
BBX 14 11 0 0
BITMAP
E01C
7018
7038
7838
5858
4C58
4C98
4698
4718
4318
E23C
ENDCHAR
STARTCHAR N
ENCODING 78
SWIDTH 722 0
DWIDTH 12 0
BBX 10 11 1 0
BITMAP
F1C0
7080
5880
5880
4C80
4680
4780
4380
4180
4180
E080
ENDCHAR
STARTCHAR O
ENCODING 79
SWIDTH 778 0
DWIDTH 12 0
BBX 10 11 1 0
BITMAP
1E00
6180
4080
C0C0
C0C0
C0C0
C0C0
C0C0
4080
6180
1E00
ENDCHAR
STARTCHAR P
ENCODING 80
SWIDTH 611 0
DWIDTH 10 0
BBX 8 11 1 0
BITMAP
FE
67
63
63
66
7C
60
60
60
60
F0
ENDCHAR
STARTCHAR Q
ENCODING 81
SWIDTH 778 0
DWIDTH 12 0
BBX 10 14 1 -3
BITMAP
1E00
6180
4080
C0C0
C0C0
C0C0
C0C0
C0C0
4080
6180
3F00
0E00
0600
0180
ENDCHAR
STARTCHAR R
ENCODING 82
SWIDTH 722 0
DWIDTH 12 0
BBX 10 11 1 0
BITMAP
FE00
6700
6300
6300
6600
7C00
6C00
6600
6300
6180
F3C0
ENDCHAR
STARTCHAR S
ENCODING 83
SWIDTH 556 0
DWIDTH 9 0
BBX 8 11 0 0
BITMAP
3D
43
C1
E0
78
3C
0E
07
83
C2
BC
ENDCHAR
STARTCHAR T
ENCODING 84
SWIDTH 667 0
DWIDTH 11 0
BBX 10 11 1 0
BITMAP
FFC0
CCC0
8C40
0C00
0C00
0C00
0C00
0C00
0C00
0C00
1E00
ENDCHAR
STARTCHAR U
ENCODING 85
SWIDTH 722 0
DWIDTH 12 0
BBX 10 11 1 0
BITMAP
F1C0
6080
6080
6080
6080
6080
6080
6080
6080
2100
1E00
ENDCHAR
STARTCHAR V
ENCODING 86
SWIDTH 722 0
DWIDTH 12 0
BBX 11 11 0 0
BITMAP
F8E0
3040
3040
1880
1880
0D00
0D00
0700
0600
0200
0200
ENDCHAR
STARTCHAR W
ENCODING 87
SWIDTH 1000 0
DWIDTH 17 0
BBX 17 11 0 0
BITMAP
FBEF80
70C300
30C200
38E200
19E600
1D6400
0D7C00
0F3800
063800
061000
021000
ENDCHAR
STARTCHAR X
ENCODING 88
SWIDTH 722 0
DWIDTH 12 0
BBX 10 11 1 0
BITMAP
FBC0
7100
3A00
3A00
1C00
0E00
1E00
1700
2300
4380
E7C0
ENDCHAR
STARTCHAR Y
ENCODING 89
SWIDTH 722 0
DWIDTH 12 0
BBX 11 11 0 0
BITMAP
F8E0
7040
3880
1880
1D00
0F00
0600
0600
0600
0600
0F00
ENDCHAR
STARTCHAR Z
ENCODING 90
SWIDTH 667 0
DWIDTH 11 0
BBX 10 11 0 0
BITMAP
FFC0
C1C0
8380
0700
0E00
0E00
1C00
3800
7040
F0C0
FFC0
ENDCHAR
STARTCHAR bracketleft
ENCODING 91
SWIDTH 333 0
DWIDTH 6 0
BBX 3 14 1 -3
BITMAP
E0
C0
C0
C0
C0
C0
C0
C0
C0
C0
C0
C0
C0
E0
ENDCHAR
STARTCHAR backslash
ENCODING 92
SWIDTH 278 0
DWIDTH 5 0
BBX 4 11 0 0
BITMAP
80
C0
40
40
60
20
20
20
30
10
10
ENDCHAR
STARTCHAR bracketright
ENCODING 93
SWIDTH 333 0
DWIDTH 6 0
BBX 3 14 1 -3
BITMAP
E0
60
60
60
60
60
60
60
60
60
60
60
60
E0
ENDCHAR
STARTCHAR asciicircum
ENCODING 94
SWIDTH 581 0
DWIDTH 9 0
BBX 7 7 1 4
BITMAP
10
38
28
6C
44
C6
82
ENDCHAR
STARTCHAR underscore
ENCODING 95
SWIDTH 500 0
DWIDTH 8 0
BBX 8 1 0 -4
BITMAP
FF
ENDCHAR
STARTCHAR grave
ENCODING 96
SWIDTH 333 0
DWIDTH 6 0
BBX 3 3 2 9
BITMAP
C0
40
20
ENDCHAR
STARTCHAR a
ENCODING 97
SWIDTH 500 0
DWIDTH 8 0
BBX 8 8 0 0
BITMAP
38
CC
CC
1C
6C
CC
CD
76
ENDCHAR
STARTCHAR b
ENCODING 98
SWIDTH 556 0
DWIDTH 9 0
BBX 8 11 0 0
BITMAP
E0
60
60
6C
76
63
63
63
63
76
EC
ENDCHAR
STARTCHAR c
ENCODING 99
SWIDTH 444 0
DWIDTH 7 0
BBX 6 8 0 0
BITMAP
38
6C
CC
C0
C0
C0
64
38
ENDCHAR
STARTCHAR d
ENCODING 100
SWIDTH 556 0
DWIDTH 9 0
BBX 8 11 0 0
BITMAP
0E
06
06
36
6E
C6
C6
C6
C6
4E
37
ENDCHAR
STARTCHAR e
ENCODING 101
SWIDTH 444 0
DWIDTH 7 0
BBX 6 8 0 0
BITMAP
38
6C
CC
FC
C0
C0
64
38
ENDCHAR
STARTCHAR f
ENCODING 102
SWIDTH 333 0
DWIDTH 6 0
BBX 6 11 0 0
BITMAP
18
6C
60
F0
60
60
60
60
60
60
F0
ENDCHAR
STARTCHAR g
ENCODING 103
SWIDTH 500 0
DWIDTH 8 0
BBX 7 12 0 -4
BITMAP
32
4E
CC
CC
C8
70
40
FC
7E
82
84
78
ENDCHAR
STARTCHAR h
ENCODING 104
SWIDTH 556 0
DWIDTH 9 0
BBX 8 11 0 0
BITMAP
E0
60
60
6C
76
66
66
66
66
66
EF
ENDCHAR
STARTCHAR i
ENCODING 105
SWIDTH 278 0
DWIDTH 5 0
BBX 4 11 0 0
BITMAP
60
60
00
E0
60
60
60
60
60
60
F0
ENDCHAR
STARTCHAR j
ENCODING 106
SWIDTH 333 0
DWIDTH 5 0
BBX 5 15 -2 -4
BITMAP
18
18
00
38
18
18
18
18
18
18
18
18
D8
D0
60
ENDCHAR
STARTCHAR k
ENCODING 107
SWIDTH 556 0
DWIDTH 9 0
BBX 9 11 0 0
BITMAP
E000
6000
6000
6F00
6400
6800
7800
7C00
6E00
6700
F780
ENDCHAR
STARTCHAR l
ENCODING 108
SWIDTH 278 0
DWIDTH 5 0
BBX 4 11 0 0
BITMAP
E0
60
60
60
60
60
60
60
60
60
F0
ENDCHAR
STARTCHAR m
ENCODING 109
SWIDTH 833 0
DWIDTH 13 0
BBX 12 8 0 0
BITMAP
EDC0
7760
6660
6660
6660
6660
6660
F6F0
ENDCHAR
STARTCHAR n
ENCODING 110
SWIDTH 556 0
DWIDTH 9 0
BBX 8 8 0 0
BITMAP
EC
7E
66
66
66
66
66
F7
ENDCHAR
STARTCHAR o
ENCODING 111
SWIDTH 500 0
DWIDTH 8 0
BBX 7 8 0 0
BITMAP
38
6C
C6
C6
C6
C6
6C
38
ENDCHAR
STARTCHAR p
ENCODING 112
SWIDTH 556 0
DWIDTH 9 0
BBX 8 12 0 -4
BITMAP
EC
76
63
63
63
63
76
6C
60
60
60
F0
ENDCHAR
STARTCHAR q
ENCODING 113
SWIDTH 556 0
DWIDTH 9 0
BBX 8 12 0 -4
BITMAP
32
6E
C6
C6
C6
C6
6E
36
06
06
06
0F
ENDCHAR
STARTCHAR r
ENCODING 114
SWIDTH 444 0
DWIDTH 7 0
BBX 6 8 0 0
BITMAP
EC
7C
60
60
60
60
60
F0
ENDCHAR
STARTCHAR s
ENCODING 115
SWIDTH 389 0
DWIDTH 6 0
BBX 5 8 0 0
BITMAP
78
C8
E0
70
38
98
D8
B0
ENDCHAR
STARTCHAR t
ENCODING 116
SWIDTH 333 0
DWIDTH 6 0
BBX 5 11 0 0
BITMAP
20
20
60
F0
60
60
60
60
60
68
30
ENDCHAR
STARTCHAR u
ENCODING 117
SWIDTH 556 0
DWIDTH 9 0
BBX 8 8 0 0
BITMAP
EE
66
66
66
66
66
6F
36
ENDCHAR
STARTCHAR v
ENCODING 118
SWIDTH 500 0
DWIDTH 8 0
BBX 8 8 0 0
BITMAP
F7
62
62
64
34
38
18
10
ENDCHAR
STARTCHAR w
ENCODING 119
SWIDTH 722 0
DWIDTH 12 0
BBX 12 8 0 0
BITMAP
EF70
6620
6620
7740
3740
3980
1980
1100
ENDCHAR
STARTCHAR x
ENCODING 120
SWIDTH 500 0
DWIDTH 8 0
BBX 7 8 0 0
BITMAP
F6
74
38
38
18
3C
4C
EE
ENDCHAR
STARTCHAR y
ENCODING 121
SWIDTH 500 0
DWIDTH 8 0
BBX 8 12 0 -4
BITMAP
F7
62
62
34
34
1C
18
18
10
10
E0
C0
ENDCHAR
STARTCHAR z
ENCODING 122
SWIDTH 444 0
DWIDTH 7 0
BBX 7 8 0 0
BITMAP
FE
8C
98
18
30
72
62
FE
ENDCHAR
STARTCHAR braceleft
ENCODING 123
SWIDTH 394 0
DWIDTH 7 0
BBX 4 14 1 -3
BITMAP
30
60
60
60
60
40
80
40
60
60
60
60
60
30
ENDCHAR
STARTCHAR bar
ENCODING 124
SWIDTH 220 0
DWIDTH 4 0
BBX 1 14 1 -3
BITMAP
80
80
80
80
80
80
80
80
80
80
80
80
80
80
ENDCHAR
STARTCHAR braceright
ENCODING 125
SWIDTH 394 0
DWIDTH 7 0
BBX 4 14 1 -3
BITMAP
C0
60
60
60
60
20
10
20
60
60
60
60
60
C0
ENDCHAR
STARTCHAR asciitilde
ENCODING 126
SWIDTH 520 0
DWIDTH 9 0
BBX 9 4 0 4
BITMAP
3000
7880
9F00
0E00
ENDCHAR
STARTCHAR space
ENCODING 160
SWIDTH 250 0
DWIDTH 5 0
BBX 1 1 0 0
BITMAP
00
ENDCHAR
STARTCHAR exclamdown
ENCODING 161
SWIDTH 333 0
DWIDTH 6 0
BBX 2 12 2 -4
BITMAP
C0
C0
00
00
40
40
40
C0
C0
C0
C0
C0
ENDCHAR
STARTCHAR cent
ENCODING 162
SWIDTH 500 0
DWIDTH 8 0
BBX 6 12 1 -2
BITMAP
04
04
38
4C
CC
D0
D0
E0
64
38
40
40
ENDCHAR
STARTCHAR sterling
ENCODING 163
SWIDTH 500 0
DWIDTH 8 0
BBX 8 11 0 0
BITMAP
1C
26
26
30
30
7C
30
10
71
9E
6E
ENDCHAR
STARTCHAR currency
ENCODING 164
SWIDTH 500 0
DWIDTH 8 0
BBX 6 7 1 1
BITMAP
B4
78
CC
84
CC
78
B4
ENDCHAR
STARTCHAR yen
ENCODING 165
SWIDTH 500 0
DWIDTH 8 0
BBX 8 11 0 0
BITMAP
E3
62
32
34
1C
7E
18
7E
18
18
7E
ENDCHAR
STARTCHAR brokenbar
ENCODING 166
SWIDTH 220 0
DWIDTH 4 0
BBX 1 15 1 -3
BITMAP
80
80
80
80
80
80
00
00
00
80
80
80
80
80
80
ENDCHAR
STARTCHAR section
ENCODING 167
SWIDTH 500 0
DWIDTH 8 0
BBX 6 15 1 -4
BITMAP
38
4C
4C
60
30
78
9C
CC
E4
78
38
18
C8
C8
70
ENDCHAR
STARTCHAR dieresis
ENCODING 168
SWIDTH 333 0
DWIDTH 6 0
BBX 5 2 0 9
BITMAP
D8
D8
ENDCHAR
STARTCHAR copyright
ENCODING 169
SWIDTH 747 0
DWIDTH 12 0
BBX 12 11 -1 0
BITMAP
0F00
30C0
4720
48A0
9810
9810
9810
48A0
4720
30C0
0F00
ENDCHAR
STARTCHAR ordfeminine
ENCODING 170
SWIDTH 300 0
DWIDTH 5 0
BBX 5 7 0 4
BITMAP
60
90
70
B0
D8
00
F8
ENDCHAR
STARTCHAR guillemotleft
ENCODING 171
SWIDTH 500 0
DWIDTH 8 0
BBX 7 7 0 0
BITMAP
12
36
6C
D8
6C
36
12
ENDCHAR
STARTCHAR logicalnot
ENCODING 172
SWIDTH 570 0
DWIDTH 9 0
BBX 7 6 1 1
BITMAP
FE
FE
02
02
02
02
ENDCHAR
STARTCHAR hyphen
ENCODING 173
SWIDTH 333 0
DWIDTH 5 0
BBX 4 2 0 3
BITMAP
F0
F0
ENDCHAR
STARTCHAR registered
ENCODING 174
SWIDTH 747 0
DWIDTH 12 0
BBX 12 11 0 0
BITMAP
0F00
30C0
4E20
4920
8910
8E10
8A10
4920
5D20
30C0
0F00
ENDCHAR
STARTCHAR macron
ENCODING 175
SWIDTH 333 0
DWIDTH 6 0
BBX 5 1 0 9
BITMAP
F8
ENDCHAR
STARTCHAR degree
ENCODING 176
SWIDTH 400 0
DWIDTH 7 0
BBX 4 5 1 6
BITMAP
60
90
90
90
60
ENDCHAR
STARTCHAR plusminus
ENCODING 177
SWIDTH 570 0
DWIDTH 9 0
BBX 7 9 1 0
BITMAP
10
10
FE
FE
10
10
00
FE
FE
ENDCHAR
STARTCHAR twosuperior
ENCODING 178
SWIDTH 300 0
DWIDTH 5 0
BBX 4 7 0 4
BITMAP
60
F0
B0
20
40
F0
F0
ENDCHAR
STARTCHAR threesuperior
ENCODING 179
SWIDTH 300 0
DWIDTH 5 0
BBX 4 7 0 4
BITMAP
60
B0
30
60
30
B0
60
ENDCHAR
STARTCHAR acute
ENCODING 180
SWIDTH 333 0
DWIDTH 6 0
BBX 3 3 1 9
BITMAP
60
40
80
ENDCHAR
STARTCHAR mu
ENCODING 181
SWIDTH 556 0
DWIDTH 9 0
BBX 8 11 0 -3
BITMAP
EE
66
66
66
66
66
6F
76
40
60
60
ENDCHAR
STARTCHAR paragraph
ENCODING 182
SWIDTH 540 0
DWIDTH 9 0
BBX 7 15 1 -4
BITMAP
3E
74
F4
F4
F4
F4
74
34
14
14
14
14
14
14
14
ENDCHAR
STARTCHAR periodcentered
ENCODING 183
SWIDTH 250 0
DWIDTH 4 0
BBX 2 2 1 4
BITMAP
C0
C0
ENDCHAR
STARTCHAR cedilla
ENCODING 184
SWIDTH 333 0
DWIDTH 6 0
BBX 5 4 0 -4
BITMAP
20
30
88
70
ENDCHAR
STARTCHAR onesuperior
ENCODING 185
SWIDTH 300 0
DWIDTH 5 0
BBX 4 7 1 4
BITMAP
60
E0
60
60
60
60
F0
ENDCHAR
STARTCHAR ordmasculine
ENCODING 186
SWIDTH 330 0
DWIDTH 6 0
BBX 4 7 1 4
BITMAP
60
90
90
90
60
00
F0
ENDCHAR
STARTCHAR guillemotright
ENCODING 187
SWIDTH 500 0
DWIDTH 8 0
BBX 7 7 0 0
BITMAP
90
D8
6C
36
6C
D8
90
ENDCHAR
STARTCHAR onequarter
ENCODING 188
SWIDTH 750 0
DWIDTH 12 0
BBX 11 11 0 0
BITMAP
6080
E100
6100
6200
6440
64C0
F9C0
0AC0
13E0
20C0
20C0
ENDCHAR
STARTCHAR onehalf
ENCODING 189
SWIDTH 750 0
DWIDTH 12 0
BBX 10 11 0 0
BITMAP
6100
E100
6200
6200
6400
6B80
FEC0
1080
1100
23C0
27C0
ENDCHAR
STARTCHAR threequarters
ENCODING 190
SWIDTH 750 0
DWIDTH 12 0
BBX 11 11 0 0
BITMAP
6080
B100
3100
6200
3440
B4C0
69C0
0AC0
13E0
20C0
20C0
ENDCHAR
STARTCHAR questiondown
ENCODING 191
SWIDTH 500 0
DWIDTH 8 0
BBX 6 11 1 -3
BITMAP
18
18
00
10
20
40
C0
C0
CC
CC
70
ENDCHAR
STARTCHAR Agrave
ENCODING 192
SWIDTH 722 0
DWIDTH 12 0
BBX 11 15 0 0
BITMAP
3000
1800
0400
0000
0400
0E00
0E00
1B00
1300
3300
2180
7F80
40C0
C0C0
E1E0
ENDCHAR
STARTCHAR Aacute
ENCODING 193
SWIDTH 722 0
DWIDTH 12 0
BBX 11 15 0 0
BITMAP
0180
0300
0400
0000
0400
0E00
0E00
1B00
1300
3300
2180
7F80
40C0
C0C0
E1E0
ENDCHAR
STARTCHAR Acircumflex
ENCODING 194
SWIDTH 722 0
DWIDTH 12 0
BBX 11 15 0 0
BITMAP
0400
0E00
1100
0000
0400
0E00
0E00
1B00
1300
3300
2180
7F80
40C0
C0C0
E1E0
ENDCHAR
STARTCHAR Atilde
ENCODING 195
SWIDTH 722 0
DWIDTH 12 0
BBX 11 14 0 0
BITMAP
1D00
2E00
0000
0400
0E00
0E00
1B00
1300
3300
2180
7F80
40C0
C0C0
E1E0
ENDCHAR
STARTCHAR Adieresis
ENCODING 196
SWIDTH 722 0
DWIDTH 12 0
BBX 11 14 0 0
BITMAP
1B00
1B00
0000
0400
0E00
0E00
1B00
1300
3300
2180
7F80
40C0
C0C0
E1E0
ENDCHAR
STARTCHAR Aring
ENCODING 197
SWIDTH 722 0
DWIDTH 12 0
BBX 11 16 0 0
BITMAP
0600
0900
0900
0600
0000
0400
0E00
0E00
1B00
1300
3300
2180
7F80
40C0
C0C0
E1E0
ENDCHAR
STARTCHAR AE
ENCODING 198
SWIDTH 1000 0
DWIDTH 16 0
BBX 14 11 1 0
BITMAP
0FF8
0718
0B08
0B00
1320
1FE0
2320
2300
4304
430C
E7FC
ENDCHAR
STARTCHAR Ccedilla
ENCODING 199
SWIDTH 722 0
DWIDTH 11 0
BBX 9 15 1 -4
BITMAP
1E80
6380
4180
C080
C000
C000
C000
C000
6080
7300
3E00
0800
0C00
2200
1C00
ENDCHAR
STARTCHAR Egrave
ENCODING 200
SWIDTH 667 0
DWIDTH 10 0
BBX 8 15 1 0
BITMAP
60
30
08
00
FF
63
61
60
62
7E
62
60
61
63
FF
ENDCHAR
STARTCHAR Eacute
ENCODING 201
SWIDTH 667 0
DWIDTH 10 0
BBX 8 15 1 0
BITMAP
06
0C
10
00
FF
63
61
60
62
7E
62
60
61
63
FF
ENDCHAR
STARTCHAR Ecircumflex
ENCODING 202
SWIDTH 667 0
DWIDTH 10 0
BBX 8 15 1 0
BITMAP
08
1C
22
00
FF
63
61
60
62
7E
62
60
61
63
FF
ENDCHAR
STARTCHAR Edieresis
ENCODING 203
SWIDTH 667 0
DWIDTH 10 0
BBX 8 14 1 0
BITMAP
66
66
00
FF
63
61
60
62
7E
62
60
61
63
FF
ENDCHAR
STARTCHAR Igrave
ENCODING 204
SWIDTH 389 0
DWIDTH 6 0
BBX 5 15 0 0
BITMAP
C0
60
10
00
78
30
30
30
30
30
30
30
30
30
78
ENDCHAR
STARTCHAR Iacute
ENCODING 205
SWIDTH 389 0
DWIDTH 6 0
BBX 4 15 1 0
BITMAP
30
60
80
00
F0
60
60
60
60
60
60
60
60
60
F0
ENDCHAR
STARTCHAR Icircumflex
ENCODING 206
SWIDTH 389 0
DWIDTH 6 0
BBX 5 15 0 0
BITMAP
20
70
88
00
78
30
30
30
30
30
30
30
30
30
78
ENDCHAR
STARTCHAR Idieresis
ENCODING 207
SWIDTH 389 0
DWIDTH 6 0
BBX 6 14 0 0
BITMAP
CC
CC
00
78
30
30
30
30
30
30
30
30
30
78
ENDCHAR
STARTCHAR Eth
ENCODING 208
SWIDTH 722 0
DWIDTH 11 0
BBX 9 11 1 0
BITMAP
FC00
6600
6300
6180
6180
F980
6180
6180
6300
6600
FC00
ENDCHAR
STARTCHAR Ntilde
ENCODING 209
SWIDTH 722 0
DWIDTH 12 0
BBX 10 14 1 0
BITMAP
1D00
2E00
0000
F1C0
7080
5880
5880
4C80
4680
4780
4380
4180
4180
E080
ENDCHAR
STARTCHAR Ograve
ENCODING 210
SWIDTH 778 0
DWIDTH 12 0
BBX 10 15 1 0
BITMAP
3000
1800
0400
0000
1E00
6180
4080
C0C0
C0C0
C0C0
C0C0
C0C0
4080
6180
1E00
ENDCHAR
STARTCHAR Oacute
ENCODING 211
SWIDTH 778 0
DWIDTH 12 0
BBX 10 15 1 0
BITMAP
0300
0600
0800
0000
1E00
6180
4080
C0C0
C0C0
C0C0
C0C0
C0C0
4080
6180
1E00
ENDCHAR
STARTCHAR Ocircumflex
ENCODING 212
SWIDTH 778 0
DWIDTH 12 0
BBX 10 15 1 0
BITMAP
0400
0E00
1100
0000
1E00
6180
4080
C0C0
C0C0
C0C0
C0C0
C0C0
4080
6180
1E00
ENDCHAR
STARTCHAR Otilde
ENCODING 213
SWIDTH 778 0
DWIDTH 12 0
BBX 10 14 1 0
BITMAP
1D00
2E00
0000
1E00
6180
4080
C0C0
C0C0
C0C0
C0C0
C0C0
4080
6180
1E00
ENDCHAR
STARTCHAR Odieresis
ENCODING 214
SWIDTH 778 0
DWIDTH 12 0
BBX 10 14 1 0
BITMAP
3300
3300
0000
1E00
6180
4080
C0C0
C0C0
C0C0
C0C0
C0C0
4080
6180
1E00
ENDCHAR
STARTCHAR multiply
ENCODING 215
SWIDTH 570 0
DWIDTH 9 0
BBX 7 8 1 0
BITMAP
82
C6
6C
38
38
6C
C6
82
ENDCHAR
STARTCHAR Oslash
ENCODING 216
SWIDTH 778 0
DWIDTH 13 0
BBX 10 13 1 -1
BITMAP
0040
1E80
6180
4180
C2C0
C2C0
C4C0
C8C0
C8C0
5080
6180
3E00
4000
ENDCHAR
STARTCHAR Ugrave
ENCODING 217
SWIDTH 722 0
DWIDTH 12 0
BBX 10 15 1 0
BITMAP
3000
1800
0400
0000
F1C0
6080
6080
6080
6080
6080
6080
6080
6080
2100
1E00
ENDCHAR
STARTCHAR Uacute
ENCODING 218
SWIDTH 722 0
DWIDTH 12 0
BBX 10 15 1 0
BITMAP
0300
0600
0800
0000
F1C0
6080
6080
6080
6080
6080
6080
6080
6080
2100
1E00
ENDCHAR
STARTCHAR Ucircumflex
ENCODING 219
SWIDTH 722 0
DWIDTH 12 0
BBX 10 15 1 0
BITMAP
0400
0E00
1100
0000
F1C0
6080
6080
6080
6080
6080
6080
6080
6080
2100
1E00
ENDCHAR
STARTCHAR Udieresis
ENCODING 220
SWIDTH 722 0
DWIDTH 12 0
BBX 10 14 1 0
BITMAP
3300
3300
0000
F1C0
6080
6080
6080
6080
6080
6080
6080
6080
2100
1E00
ENDCHAR
STARTCHAR Yacute
ENCODING 221
SWIDTH 722 0
DWIDTH 12 0
BBX 11 15 0 0
BITMAP
0180
0300
0400
0000
F8E0
7040
3880
1880
1D00
0F00
0600
0600
0600
0600
0F00
ENDCHAR
STARTCHAR Thorn
ENCODING 222
SWIDTH 611 0
DWIDTH 10 0
BBX 8 11 1 0
BITMAP
F0
60
7E
67
63
63
67
7E
60
60
F0
ENDCHAR
STARTCHAR germandbls
ENCODING 223
SWIDTH 556 0
DWIDTH 9 0
BBX 8 11 0 0
BITMAP
18
26
66
66
6C
62
63
63
63
62
EC
ENDCHAR
STARTCHAR agrave
ENCODING 224
SWIDTH 500 0
DWIDTH 8 0
BBX 8 12 0 0
BITMAP
30
10
08
00
38
CC
CC
1C
6C
CC
CD
76
ENDCHAR
STARTCHAR aacute
ENCODING 225
SWIDTH 500 0
DWIDTH 8 0
BBX 8 12 0 0
BITMAP
18
10
20
00
38
CC
CC
1C
6C
CC
CD
76
ENDCHAR
STARTCHAR acircumflex
ENCODING 226
SWIDTH 500 0
DWIDTH 8 0
BBX 8 12 0 0
BITMAP
10
38
44
00
38
CC
CC
1C
6C
CC
CD
76
ENDCHAR
STARTCHAR atilde
ENCODING 227
SWIDTH 500 0
DWIDTH 8 0
BBX 8 11 0 0
BITMAP
34
58
00
38
CC
CC
1C
6C
CC
CD
76
ENDCHAR
STARTCHAR adieresis
ENCODING 228
SWIDTH 500 0
DWIDTH 8 0
BBX 8 11 0 0
BITMAP
6C
6C
00
38
CC
CC
1C
6C
CC
CD
76
ENDCHAR
STARTCHAR aring
ENCODING 229
SWIDTH 500 0
DWIDTH 8 0
BBX 8 13 0 0
BITMAP
10
28
28
10
00
38
CC
CC
1C
6C
CC
CD
76
ENDCHAR
STARTCHAR ae
ENCODING 230
SWIDTH 722 0
DWIDTH 12 0
BBX 10 8 1 0
BITMAP
3380
CEC0
CCC0
1FC0
6C00
CC00
D640
6380
ENDCHAR
STARTCHAR ccedilla
ENCODING 231
SWIDTH 444 0
DWIDTH 7 0
BBX 6 12 0 -4
BITMAP
38
6C
CC
C0
C0
C0
64
38
20
30
88
70
ENDCHAR
STARTCHAR egrave
ENCODING 232
SWIDTH 444 0
DWIDTH 7 0
BBX 6 12 0 0
BITMAP
30
10
08
00
38
6C
CC
FC
C0
C0
64
38
ENDCHAR
STARTCHAR eacute
ENCODING 233
SWIDTH 444 0
DWIDTH 7 0
BBX 6 12 0 0
BITMAP
18
10
20
00
38
6C
CC
FC
C0
C0
64
38
ENDCHAR
STARTCHAR ecircumflex
ENCODING 234
SWIDTH 444 0
DWIDTH 7 0
BBX 6 12 0 0
BITMAP
10
38
44
00
38
6C
CC
FC
C0
C0
64
38
ENDCHAR
STARTCHAR edieresis
ENCODING 235
SWIDTH 444 0
DWIDTH 7 0
BBX 6 11 0 0
BITMAP
6C
6C
00
38
6C
CC
FC
C0
C0
64
38
ENDCHAR
STARTCHAR igrave
ENCODING 236
SWIDTH 278 0
DWIDTH 5 0
BBX 4 12 0 0
BITMAP
C0
40
20
00
E0
60
60
60
60
60
60
F0
ENDCHAR
STARTCHAR iacute
ENCODING 237
SWIDTH 278 0
DWIDTH 5 0
BBX 4 12 0 0
BITMAP
30
20
40
00
E0
60
60
60
60
60
60
F0
ENDCHAR
STARTCHAR icircumflex
ENCODING 238
SWIDTH 278 0
DWIDTH 5 0
BBX 5 12 -1 0
BITMAP
20
70
88
00
70
30
30
30
30
30
30
78
ENDCHAR
STARTCHAR idieresis
ENCODING 239
SWIDTH 278 0
DWIDTH 5 0
BBX 5 11 -1 0
BITMAP
D8
D8
00
70
30
30
30
30
30
30
78
ENDCHAR
STARTCHAR eth
ENCODING 240
SWIDTH 500 0
DWIDTH 8 0
BBX 7 11 0 0
BITMAP
6C
30
D8
3C
6C
C6
C6
C6
C6
6C
38
ENDCHAR
STARTCHAR ntilde
ENCODING 241
SWIDTH 556 0
DWIDTH 9 0
BBX 8 11 0 0
BITMAP
34
58
00
EC
7E
66
66
66
66
66
F7
ENDCHAR
STARTCHAR ograve
ENCODING 242
SWIDTH 500 0
DWIDTH 8 0
BBX 7 12 0 0
BITMAP
30
10
08
00
38
6C
C6
C6
C6
C6
6C
38
ENDCHAR
STARTCHAR oacute
ENCODING 243
SWIDTH 500 0
DWIDTH 8 0
BBX 7 12 0 0
BITMAP
18
10
20
00
38
6C
C6
C6
C6
C6
6C
38
ENDCHAR
STARTCHAR ocircumflex
ENCODING 244
SWIDTH 500 0
DWIDTH 8 0
BBX 7 12 0 0
BITMAP
10
38
44
00
38
6C
C6
C6
C6
C6
6C
38
ENDCHAR
STARTCHAR otilde
ENCODING 245
SWIDTH 500 0
DWIDTH 8 0
BBX 7 11 0 0
BITMAP
34
58
00
38
6C
C6
C6
C6
C6
6C
38
ENDCHAR
STARTCHAR odieresis
ENCODING 246
SWIDTH 500 0
DWIDTH 8 0
BBX 7 11 0 0
BITMAP
6C
6C
00
38
6C
C6
C6
C6
C6
6C
38
ENDCHAR
STARTCHAR divide
ENCODING 247
SWIDTH 570 0
DWIDTH 9 0
BBX 8 8 0 0
BITMAP
18
18
00
FF
FF
00
18
18
ENDCHAR
STARTCHAR oslash
ENCODING 248
SWIDTH 500 0
DWIDTH 8 0
BBX 7 10 0 -1
BITMAP
02
3C
6C
CE
D6
D6
E6
6C
78
80
ENDCHAR
STARTCHAR ugrave
ENCODING 249
SWIDTH 556 0
DWIDTH 9 0
BBX 8 12 0 0
BITMAP
30
10
08
00
EE
66
66
66
66
66
6F
36
ENDCHAR
STARTCHAR uacute
ENCODING 250
SWIDTH 556 0
DWIDTH 9 0
BBX 8 12 0 0
BITMAP
0C
08
10
00
EE
66
66
66
66
66
6F
36
ENDCHAR
STARTCHAR ucircumflex
ENCODING 251
SWIDTH 556 0
DWIDTH 9 0
BBX 8 12 0 0
BITMAP
10
38
44
00
EE
66
66
66
66
66
6F
36
ENDCHAR
STARTCHAR udieresis
ENCODING 252
SWIDTH 556 0
DWIDTH 9 0
BBX 8 11 0 0
BITMAP
6C
6C
00
EE
66
66
66
66
66
6F
36
ENDCHAR
STARTCHAR yacute
ENCODING 253
SWIDTH 500 0
DWIDTH 8 0
BBX 8 16 0 -4
BITMAP
0C
08
10
00
F7
62
62
34
34
1C
18
18
10
10
E0
C0
ENDCHAR
STARTCHAR thorn
ENCODING 254
SWIDTH 556 0
DWIDTH 9 0
BBX 8 15 0 -4
BITMAP
E0
60
60
6C
76
63
63
63
63
72
6C
60
60
60
F0
ENDCHAR
STARTCHAR ydieresis
ENCODING 255
SWIDTH 500 0
DWIDTH 8 0
BBX 8 15 0 -4
BITMAP
6C
6C
00
F7
62
62
34
34
1C
18
18
10
10
E0
C0
ENDCHAR
STARTCHAR Amacron
ENCODING 256
SWIDTH 722 0
DWIDTH 12 0
BBX 11 13 0 0
BITMAP
1F00
0000
0400
0E00
0E00
1B00
1300
3300
2180
7F80
40C0
C0C0
E1E0
ENDCHAR
STARTCHAR amacron
ENCODING 257
SWIDTH 500 0
DWIDTH 8 0
BBX 8 10 0 0
BITMAP
7C
00
38
CC
CC
1C
6C
CC
CD
76
ENDCHAR
STARTCHAR Abreve
ENCODING 258
SWIDTH 722 0
DWIDTH 12 0
BBX 11 14 0 0
BITMAP
1100
0E00
0000
0400
0E00
0E00
1B00
1300
3300
2180
7F80
40C0
C0C0
E1E0
ENDCHAR
STARTCHAR abreve
ENCODING 259
SWIDTH 500 0
DWIDTH 8 0
BBX 8 11 0 0
BITMAP
44
38
00
38
CC
CC
1C
6C
CC
CD
76
ENDCHAR
STARTCHAR Aogonek
ENCODING 260
SWIDTH 722 0
DWIDTH 12 0
BBX 11 14 0 -3
BITMAP
0400
0E00
0E00
1B00
1300
3300
2180
7F80
40C0
C0C0
E5E0
0800
0800
0600
ENDCHAR
STARTCHAR aogonek
ENCODING 261
SWIDTH 500 0
DWIDTH 8 0
BBX 8 11 0 -3
BITMAP
38
CC
CC
1C
6C
CC
CD
7E
10
10
0C
ENDCHAR
STARTCHAR Cacute
ENCODING 262
SWIDTH 722 0
DWIDTH 11 0
BBX 9 15 1 0
BITMAP
0600
0400
0800
0000
1E80
6380
4180
C080
C000
C000
C000
C000
6080
7300
3E00
ENDCHAR
STARTCHAR cacute
ENCODING 263
SWIDTH 444 0
DWIDTH 7 0
BBX 6 12 0 0
BITMAP
18
10
20
00
38
6C
CC
C0
C0
C0
64
38
ENDCHAR
STARTCHAR Ccircumflex
ENCODING 264
SWIDTH 722 0
DWIDTH 11 0
BBX 9 15 1 0
BITMAP
0400
0E00
1100
0000
1E80
6380
4180
C080
C000
C000
C000
C000
6080
7300
3E00
ENDCHAR
STARTCHAR ccircumflex
ENCODING 265
SWIDTH 444 0
DWIDTH 7 0
BBX 6 12 0 0
BITMAP
10
38
44
00
38
6C
CC
C0
C0
C0
64
38
ENDCHAR
STARTCHAR Cdotaccent
ENCODING 266
SWIDTH 722 0
DWIDTH 11 0
BBX 9 14 1 0
BITMAP
0C00
0C00
0000
1E80
6380
4180
C080
C000
C000
C000
C000
6080
7300
3E00
ENDCHAR
STARTCHAR cdotaccent
ENCODING 267
SWIDTH 444 0
DWIDTH 7 0
BBX 6 11 0 0
BITMAP
30
30
00
38
6C
CC
C0
C0
C0
64
38
ENDCHAR
STARTCHAR Ccaron
ENCODING 268
SWIDTH 722 0
DWIDTH 11 0
BBX 9 15 1 0
BITMAP
1100
0E00
0400
0000
1E80
6380
4180
C080
C000
C000
C000
C000
6080
7300
3E00
ENDCHAR
STARTCHAR ccaron
ENCODING 269
SWIDTH 444 0
DWIDTH 7 0
BBX 6 12 0 0
BITMAP
44
38
10
00
38
6C
CC
C0
C0
C0
64
38
ENDCHAR
STARTCHAR Dcaron
ENCODING 270
SWIDTH 722 0
DWIDTH 11 0
BBX 9 15 1 0
BITMAP
4400
3800
1000
0000
FC00
6600
6300
6180
6180
6180
6180
6180
6300
6600
FC00
ENDCHAR
STARTCHAR dcaron
ENCODING 271
SWIDTH 861 0
DWIDTH 15 0
BBX 13 11 0 0
BITMAP
0E18
0618
0608
3608
6E10
C600
C600
C600
C600
4E00
3700
ENDCHAR
STARTCHAR Dcroat
ENCODING 272
SWIDTH 722 0
DWIDTH 11 0
BBX 9 11 1 0
BITMAP
FC00
6600
6300
6180
6180
F980
6180
6180
6300
6600
FC00
ENDCHAR
STARTCHAR dcroat
ENCODING 273
SWIDTH 556 0
DWIDTH 9 0
BBX 8 11 0 0
BITMAP
0E
1E
06
36
6E
C6
C6
C6
C6
4E
37
ENDCHAR
STARTCHAR Emacron
ENCODING 274
SWIDTH 667 0
DWIDTH 10 0
BBX 8 13 1 0
BITMAP
3E
00
FF
63
61
60
62
7E
62
60
61
63
FF
ENDCHAR
STARTCHAR emacron
ENCODING 275
SWIDTH 444 0
DWIDTH 7 0
BBX 6 10 0 0
BITMAP
7C
00
38
6C
CC
FC
C0
C0
64
38
ENDCHAR
STARTCHAR Ebreve
ENCODING 276
SWIDTH 667 0
DWIDTH 10 0
BBX 8 14 1 0
BITMAP
22
1C
00
FF
63
61
60
62
7E
62
60
61
63
FF
ENDCHAR
STARTCHAR ebreve
ENCODING 277
SWIDTH 444 0
DWIDTH 7 0
BBX 6 11 0 0
BITMAP
44
38
00
38
6C
CC
FC
C0
C0
64
38
ENDCHAR
STARTCHAR Edotaccent
ENCODING 278
SWIDTH 667 0
DWIDTH 10 0
BBX 8 14 1 0
BITMAP
18
18
00
FF
63
61
60
62
7E
62
60
61
63
FF
ENDCHAR
STARTCHAR edotaccent
ENCODING 279
SWIDTH 444 0
DWIDTH 7 0
BBX 6 11 0 0
BITMAP
30
30
00
38
6C
CC
FC
C0
C0
64
38
ENDCHAR
STARTCHAR Eogonek
ENCODING 280
SWIDTH 667 0
DWIDTH 10 0
BBX 8 14 1 -3
BITMAP
FF
63
61
60
62
7E
62
60
61
63
FF
10
10
0C
ENDCHAR
STARTCHAR eogonek
ENCODING 281
SWIDTH 444 0
DWIDTH 7 0
BBX 6 11 0 -3
BITMAP
38
6C
CC
FC
C0
C0
64
38
20
20
18
ENDCHAR
STARTCHAR Ecaron
ENCODING 282
SWIDTH 667 0
DWIDTH 10 0
BBX 8 15 1 0
BITMAP
22
1C
08
00
FF
63
61
60
62
7E
62
60
61
63
FF
ENDCHAR
STARTCHAR ecaron
ENCODING 283
SWIDTH 444 0
DWIDTH 7 0
BBX 6 12 0 0
BITMAP
44
38
10
00
38
6C
CC
FC
C0
C0
64
38
ENDCHAR
STARTCHAR Gcircumflex
ENCODING 284
SWIDTH 778 0
DWIDTH 12 0
BBX 10 15 1 0
BITMAP
0400
0E00
1100
0000
1E80
6380
4180
C080
C000
C000
C7C0
C180
C180
6180
3F00
ENDCHAR
STARTCHAR gcircumflex
ENCODING 285
SWIDTH 500 0
DWIDTH 8 0
BBX 7 16 0 -4
BITMAP
10
38
44
00
32
4E
CC
CC
C8
70
40
FC
7E
82
84
78
ENDCHAR
STARTCHAR Gbreve
ENCODING 286
SWIDTH 778 0
DWIDTH 12 0
BBX 10 14 1 0
BITMAP
1100
0E00
0000
1E80
6380
4180
C080
C000
C000
C7C0
C180
C180
6180
3F00
ENDCHAR
STARTCHAR gbreve
ENCODING 287
SWIDTH 500 0
DWIDTH 8 0
BBX 7 15 0 -4
BITMAP
44
38
00
32
4E
CC
CC
C8
70
40
FC
7E
82
84
78
ENDCHAR
STARTCHAR Gdotaccent
ENCODING 288
SWIDTH 778 0
DWIDTH 12 0
BBX 10 14 1 0
BITMAP
0C00
0C00
0000
1E80
6380
4180
C080
C000
C000
C7C0
C180
C180
6180
3F00
ENDCHAR
STARTCHAR gdotaccent
ENCODING 289
SWIDTH 500 0
DWIDTH 8 0
BBX 7 15 0 -4
BITMAP
18
18
00
32
4E
CC
CC
C8
70
40
FC
7E
82
84
78
ENDCHAR
STARTCHAR Gcommaaccent
ENCODING 290
SWIDTH 778 0
DWIDTH 12 0
BBX 10 17 1 -6
BITMAP
1E80
6380
4180
C080
C000
C000
C7C0
C180
C180
6180
3F00
0000
0C00
0C00
0400
0400
0800
ENDCHAR
STARTCHAR gcommaaccent
ENCODING 291
SWIDTH 500 0
DWIDTH 8 0
BBX 7 18 0 -4
BITMAP
08
10
10
18
18
00
32
4E
CC
CC
C8
70
40
FC
7E
82
84
78
ENDCHAR
STARTCHAR Hcircumflex
ENCODING 292
SWIDTH 778 0
DWIDTH 12 0
BBX 10 15 1 0
BITMAP
0400
0E00
1100
0000
F3C0
6180
6180
6180
6180
7F80
6180
6180
6180
6180
F3C0
ENDCHAR
STARTCHAR hcircumflex
ENCODING 293
SWIDTH 556 0
DWIDTH 9 0
BBX 8 15 0 0
BITMAP
20
70
88
00
E0
60
60
6C
76
66
66
66
66
66
EF
ENDCHAR
STARTCHAR Hbar
ENCODING 294
SWIDTH 778 0
DWIDTH 12 0
BBX 10 11 1 0
BITMAP
F3C0
6180
FFC0
6180
6180
7F80
6180
6180
6180
6180
F3C0
ENDCHAR
STARTCHAR hbar
ENCODING 295
SWIDTH 556 0
DWIDTH 9 0
BBX 8 11 0 0
BITMAP
E0
F0
60
6C
76
66
66
66
66
66
EF
ENDCHAR
STARTCHAR Itilde
ENCODING 296
SWIDTH 389 0
DWIDTH 6 0
BBX 5 14 1 0
BITMAP
68
B0
00
F0
60
60
60
60
60
60
60
60
60
F0
ENDCHAR
STARTCHAR itilde
ENCODING 297
SWIDTH 278 0
DWIDTH 5 0
BBX 5 11 0 0
BITMAP
68
B0
00
E0
60
60
60
60
60
60
F0
ENDCHAR
STARTCHAR Imacron
ENCODING 298
SWIDTH 389 0
DWIDTH 6 0
BBX 5 13 1 0
BITMAP
F8
00
F0
60
60
60
60
60
60
60
60
60
F0
ENDCHAR
STARTCHAR imacron
ENCODING 299
SWIDTH 278 0
DWIDTH 5 0
BBX 5 10 -1 0
BITMAP
F8
00
70
30
30
30
30
30
30
78
ENDCHAR
STARTCHAR Ibreve
ENCODING 300
SWIDTH 389 0
DWIDTH 6 0
BBX 5 14 1 0
BITMAP
88
70
00
F0
60
60
60
60
60
60
60
60
60
F0
ENDCHAR
STARTCHAR ibreve
ENCODING 301
SWIDTH 278 0
DWIDTH 5 0
BBX 5 11 -1 0
BITMAP
88
70
00
70
30
30
30
30
30
30
78
ENDCHAR
STARTCHAR Iogonek
ENCODING 302
SWIDTH 389 0
DWIDTH 6 0
BBX 4 14 1 -3
BITMAP
F0
60
60
60
60
60
60
60
60
60
F0
40
40
30
ENDCHAR
STARTCHAR iogonek
ENCODING 303
SWIDTH 278 0
DWIDTH 5 0
BBX 4 14 0 -3
BITMAP
60
60
00
E0
60
60
60
60
60
60
F0
40
40
30
ENDCHAR
STARTCHAR Idotaccent
ENCODING 304
SWIDTH 389 0
DWIDTH 6 0
BBX 4 14 1 0
BITMAP
60
60
00
F0
60
60
60
60
60
60
60
60
60
F0
ENDCHAR
STARTCHAR dotlessi
ENCODING 305
SWIDTH 278 0
DWIDTH 5 0
BBX 4 8 0 0
BITMAP
E0
60
60
60
60
60
60
F0
ENDCHAR
STARTCHAR IJ
ENCODING 306
SWIDTH 870 0
DWIDTH 14 0
BBX 12 13 1 -2
BITMAP
F0F0
6060
6060
6060
6060
6060
6060
6060
6060
6060
F360
0340
0180
ENDCHAR
STARTCHAR ij
ENCODING 307
SWIDTH 597 0
DWIDTH 10 0
BBX 8 15 0 -4
BITMAP
63
63
00
E7
63
63
63
63
63
63
F3
03
1B
1A
0C
ENDCHAR
STARTCHAR Jcircumflex
ENCODING 308
SWIDTH 500 0
DWIDTH 8 0
BBX 6 17 1 -2
BITMAP
10
38
44
00
3C
18
18
18
18
18
18
18
18
18
D8
D0
60
ENDCHAR
STARTCHAR jcircumflex
ENCODING 309
SWIDTH 333 0
DWIDTH 5 0
BBX 6 16 -2 -4
BITMAP
10
38
44
00
38
18
18
18
18
18
18
18
18
D8
D0
60
ENDCHAR
STARTCHAR Kcommaaccent
ENCODING 310
SWIDTH 778 0
DWIDTH 13 0
BBX 11 17 1 -6
BITMAP
FBC0
6100
6200
6400
6800
7800
6C00
6600
6300
6180
FBE0
0000
0C00
0C00
0400
0400
0800
ENDCHAR
STARTCHAR kcommaaccent
ENCODING 311
SWIDTH 556 0
DWIDTH 9 0
BBX 9 17 0 -6
BITMAP
E000
6000
6000
6F00
6400
6800
7800
7C00
6E00
6700
F780
0000
1800
1800
0800
0800
1000
ENDCHAR
STARTCHAR kgreenlandic
ENCODING 312
SWIDTH 556 0
DWIDTH 9 0
BBX 9 8 0 0
BITMAP
6F00
6400
6800
7800
7C00
6E00
6700
F780
ENDCHAR
STARTCHAR Lacute
ENCODING 313
SWIDTH 667 0
DWIDTH 11 0
BBX 9 15 1 0
BITMAP
1800
1000
2000
0000
F000
6000
6000
6000
6000
6000
6000
6080
6080
6180
FF80
ENDCHAR
STARTCHAR lacute
ENCODING 314
SWIDTH 278 0
DWIDTH 5 0
BBX 4 15 0 0
BITMAP
30
20
40
00
E0
60
60
60
60
60
60
60
60
60
F0
ENDCHAR
STARTCHAR Lcommaaccent
ENCODING 315
SWIDTH 667 0
DWIDTH 11 0
BBX 9 17 1 -6
BITMAP
F000
6000
6000
6000
6000
6000
6000
6080
6080
6180
FF80
0000
0C00
0C00
0400
0400
0800
ENDCHAR
STARTCHAR lcommaaccent
ENCODING 316
SWIDTH 278 0
DWIDTH 5 0
BBX 4 17 0 -6
BITMAP
E0
60
60
60
60
60
60
60
60
60
F0
00
60
60
20
20
40
ENDCHAR
STARTCHAR Lcaron
ENCODING 317
SWIDTH 967 0
DWIDTH 16 0
BBX 13 11 1 0
BITMAP
F018
6018
6008
6008
6010
6000
6000
6080
6080
6180
FF80
ENDCHAR
STARTCHAR lcaron
ENCODING 318
SWIDTH 597 0
DWIDTH 11 0
BBX 9 11 0 0
BITMAP
E180
6180
6080
6080
6100
6000
6000
6000
6000
6000
F000
ENDCHAR
STARTCHAR Ldot
ENCODING 319
SWIDTH 884 0
DWIDTH 14 0
BBX 12 11 1 0
BITMAP
F000
6000
6000
6000
6000
6030
6030
6080
6080
6180
FF80
ENDCHAR
STARTCHAR ldot
ENCODING 320
SWIDTH 514 0
DWIDTH 9 0
BBX 8 11 0 0
BITMAP
E0
60
60
60
60
63
63
60
60
60
F0
ENDCHAR
STARTCHAR Lslash
ENCODING 321
SWIDTH 667 0
DWIDTH 11 0
BBX 10 11 0 0
BITMAP
F800
7000
7400
7800
7000
7000
F000
7000
7040
70C0
FF80
ENDCHAR
STARTCHAR lslash
ENCODING 322
SWIDTH 278 0
DWIDTH 5 0
BBX 6 11 -1 0
BITMAP
70
30
30
34
38
70
B0
30
30
30
78
ENDCHAR
STARTCHAR Nacute
ENCODING 323
SWIDTH 722 0
DWIDTH 12 0
BBX 10 15 1 0
BITMAP
0600
0400
0800
0000
F1C0
7080
5880
5880
4C80
4680
4780
4380
4180
4180
E080
ENDCHAR
STARTCHAR nacute
ENCODING 324
SWIDTH 556 0
DWIDTH 9 0
BBX 8 12 0 0
BITMAP
0C
08
10
00
EC
7E
66
66
66
66
66
F7
ENDCHAR
STARTCHAR Ncommaaccent
ENCODING 325
SWIDTH 722 0
DWIDTH 12 0
BBX 10 17 1 -6
BITMAP
F1C0
7080
5880
5880
4C80
4680
4780
4380
4180
4180
E080
0000
0C00
0C00
0400
0400
0800
ENDCHAR
STARTCHAR ncommaaccent
ENCODING 326
SWIDTH 556 0
DWIDTH 9 0
BBX 8 14 0 -6
BITMAP
EC
7E
66
66
66
66
66
F7
00
18
18
08
08
10
ENDCHAR
STARTCHAR Ncaron
ENCODING 327
SWIDTH 722 0
DWIDTH 12 0
BBX 10 15 1 0
BITMAP
2200
1C00
0800
0000
F1C0
7080
5880
5880
4C80
4680
4780
4380
4180
4180
E080
ENDCHAR
STARTCHAR ncaron
ENCODING 328
SWIDTH 556 0
DWIDTH 9 0
BBX 8 12 0 0
BITMAP
44
38
10
00
EC
7E
66
66
66
66
66
F7
ENDCHAR
STARTCHAR napostrophe
ENCODING 329
SWIDTH 872 0
DWIDTH 15 0
BBX 12 11 2 0
BITMAP
C000
C000
4000
4EC0
87E0
0660
0660
0660
0660
0660
0F70
ENDCHAR
STARTCHAR Eng
ENCODING 330
SWIDTH 722 0
DWIDTH 12 0
BBX 10 15 1 -4
BITMAP
F1C0
7080
5880
5880
4C80
4680
4780
4380
4180
4180
E180
0180
0D80
0D00
0600
ENDCHAR
STARTCHAR eng
ENCODING 331
SWIDTH 556 0
DWIDTH 9 0
BBX 7 12 0 -4
BITMAP
EC
7E
66
66
66
66
66
F6
06
36
34
18
ENDCHAR
STARTCHAR Omacron
ENCODING 332
SWIDTH 778 0
DWIDTH 12 0
BBX 10 13 1 0
BITMAP
1F00
0000
1E00
6180
4080
C0C0
C0C0
C0C0
C0C0
C0C0
4080
6180
1E00
ENDCHAR
STARTCHAR omacron
ENCODING 333
SWIDTH 500 0
DWIDTH 8 0
BBX 7 10 0 0
BITMAP
7C
00
38
6C
C6
C6
C6
C6
6C
38
ENDCHAR
STARTCHAR Obreve
ENCODING 334
SWIDTH 778 0
DWIDTH 12 0
BBX 10 14 1 0
BITMAP
1100
0E00
0000
1E00
6180
4080
C0C0
C0C0
C0C0
C0C0
C0C0
4080
6180
1E00
ENDCHAR
STARTCHAR obreve
ENCODING 335
SWIDTH 500 0
DWIDTH 8 0
BBX 7 11 0 0
BITMAP
44
38
00
38
6C
C6
C6
C6
C6
6C
38
ENDCHAR
STARTCHAR Ohungarumlaut
ENCODING 336
SWIDTH 778 0
DWIDTH 12 0
BBX 10 15 1 0
BITMAP
0D80
0900
1200
0000
1E00
6180
4080
C0C0
C0C0
C0C0
C0C0
C0C0
4080
6180
1E00
ENDCHAR
STARTCHAR ohungarumlaut
ENCODING 337
SWIDTH 500 0
DWIDTH 8 0
BBX 7 12 0 0
BITMAP
36
24
48
00
38
6C
C6
C6
C6
C6
6C
38
ENDCHAR
STARTCHAR OE
ENCODING 338
SWIDTH 1000 0
DWIDTH 16 0
BBX 15 11 0 0
BITMAP
0FFE
31C6
61C2
E1C8
E1D8
E1F8
E1D8
E1C8
61C2
31C6
0FFE
ENDCHAR
STARTCHAR oe
ENCODING 339
SWIDTH 722 0
DWIDTH 12 0
BBX 11 8 0 0
BITMAP
39C0
6F60
C660
C7E0
C600
C600
6F20
39C0
ENDCHAR
STARTCHAR Racute
ENCODING 340
SWIDTH 722 0
DWIDTH 12 0
BBX 10 15 1 0
BITMAP
0600
0400
0800
0000
FE00
6700
6300
6300
6600
7C00
6C00
6600
6300
6180
F3C0
ENDCHAR
STARTCHAR racute
ENCODING 341
SWIDTH 444 0
DWIDTH 7 0
BBX 6 12 0 0
BITMAP
18
10
20
00
EC
7C
60
60
60
60
60
F0
ENDCHAR
STARTCHAR Rcommaaccent
ENCODING 342
SWIDTH 722 0
DWIDTH 12 0
BBX 10 17 1 -6
BITMAP
FE00
6700
6300
6300
6600
7C00
6C00
6600
6300
6180
F3C0
0000
0C00
0C00
0400
0400
0800
ENDCHAR
STARTCHAR rcommaaccent
ENCODING 343
SWIDTH 444 0
DWIDTH 7 0
BBX 6 14 0 -6
BITMAP
EC
7C
60
60
60
60
60
F0
00
60
60
20
20
40
ENDCHAR
STARTCHAR Rcaron
ENCODING 344
SWIDTH 722 0
DWIDTH 12 0
BBX 10 15 1 0
BITMAP
2200
1C00
0800
0000
FE00
6700
6300
6300
6600
7C00
6C00
6600
6300
6180
F3C0
ENDCHAR
STARTCHAR rcaron
ENCODING 345
SWIDTH 444 0
DWIDTH 7 0
BBX 6 12 0 0
BITMAP
44
38
10
00
EC
7C
60
60
60
60
60
F0
ENDCHAR
STARTCHAR Sacute
ENCODING 346
SWIDTH 556 0
DWIDTH 9 0
BBX 8 15 0 0
BITMAP
0C
08
10
00
3D
43
C1
E0
78
3C
0E
07
83
C2
BC
ENDCHAR
STARTCHAR sacute
ENCODING 347
SWIDTH 389 0
DWIDTH 6 0
BBX 5 12 0 0
BITMAP
18
10
20
00
78
C8
E0
70
38
98
D8
B0
ENDCHAR
STARTCHAR Scircumflex
ENCODING 348
SWIDTH 556 0
DWIDTH 9 0
BBX 8 15 0 0
BITMAP
08
1C
22
00
3D
43
C1
E0
78
3C
0E
07
83
C2
BC
ENDCHAR
STARTCHAR scircumflex
ENCODING 349
SWIDTH 389 0
DWIDTH 6 0
BBX 5 12 0 0
BITMAP
20
70
88
00
78
C8
E0
70
38
98
D8
B0
ENDCHAR
STARTCHAR Scedilla
ENCODING 350
SWIDTH 556 0
DWIDTH 9 0
BBX 8 15 0 -4
BITMAP
3D
43
C1
E0
78
3C
0E
07
83
C2
BC
10
18
44
38
ENDCHAR
STARTCHAR scedilla
ENCODING 351
SWIDTH 389 0
DWIDTH 6 0
BBX 5 12 0 -4
BITMAP
78
C8
E0
70
38
98
D8
B0
20
30
88
70
ENDCHAR
STARTCHAR Scaron
ENCODING 352
SWIDTH 556 0
DWIDTH 9 0
BBX 8 13 0 0
BITMAP
22
1C
08
00
3D
43
C1
F0
7E
0F
83
C2
BC
ENDCHAR
STARTCHAR scaron
ENCODING 353
SWIDTH 389 0
DWIDTH 6 0
BBX 6 12 0 0
BITMAP
44
38
10
00
74
CC
E4
70
38
9C
CC
B8
ENDCHAR
STARTCHAR Tcommaaccent
ENCODING 354
SWIDTH 667 0
DWIDTH 11 0
BBX 10 15 1 -4
BITMAP
FFC0
CCC0
8C40
0C00
0C00
0C00
0C00
0C00
0C00
0C00
1E00
0800
0C00
2200
1C00
ENDCHAR
STARTCHAR tcommaaccent
ENCODING 355
SWIDTH 333 0
DWIDTH 6 0
BBX 5 15 0 -4
BITMAP
20
20
60
F0
60
60
60
60
60
68
30
20
30
88
70
ENDCHAR
STARTCHAR Tcaron
ENCODING 356
SWIDTH 667 0
DWIDTH 11 0
BBX 10 15 1 0
BITMAP
1100
0E00
0400
0000
FFC0
CCC0
8C40
0C00
0C00
0C00
0C00
0C00
0C00
0C00
1E00
ENDCHAR
STARTCHAR tcaron
ENCODING 357
SWIDTH 649 0
DWIDTH 12 0
BBX 10 11 0 0
BITMAP
20C0
20C0
6040
F040
6080
6000
6000
6000
6000
6800
3000
ENDCHAR
STARTCHAR Tbar
ENCODING 358
SWIDTH 667 0
DWIDTH 11 0
BBX 10 11 1 0
BITMAP
FFC0
CCC0
8C40
0C00
0C00
1E00
0C00
0C00
0C00
0C00
1E00
ENDCHAR
STARTCHAR tbar
ENCODING 359
SWIDTH 333 0
DWIDTH 6 0
BBX 5 11 0 0
BITMAP
20
20
60
F0
60
60
78
60
60
68
30
ENDCHAR
STARTCHAR Utilde
ENCODING 360
SWIDTH 722 0
DWIDTH 12 0
BBX 10 14 1 0
BITMAP
1A00
2C00
0000
F1C0
6080
6080
6080
6080
6080
6080
6080
6080
2100
1E00
ENDCHAR
STARTCHAR utilde
ENCODING 361
SWIDTH 556 0
DWIDTH 9 0
BBX 8 11 0 0
BITMAP
1A
2C
00
EE
66
66
66
66
66
6F
36
ENDCHAR
STARTCHAR Umacron
ENCODING 362
SWIDTH 722 0
DWIDTH 12 0
BBX 10 13 1 0
BITMAP
3E00
0000
F1C0
6080
6080
6080
6080
6080
6080
6080
6080
2100
1E00
ENDCHAR
STARTCHAR umacron
ENCODING 363
SWIDTH 556 0
DWIDTH 9 0
BBX 8 10 0 0
BITMAP
7C
00
EE
66
66
66
66
66
6F
36
ENDCHAR
STARTCHAR Ubreve
ENCODING 364
SWIDTH 722 0
DWIDTH 12 0
BBX 10 14 1 0
BITMAP
2200
1C00
0000
F1C0
6080
6080
6080
6080
6080
6080
6080
6080
2100
1E00
ENDCHAR
STARTCHAR ubreve
ENCODING 365
SWIDTH 556 0
DWIDTH 9 0
BBX 8 11 0 0
BITMAP
44
38
00
EE
66
66
66
66
66
6F
36
ENDCHAR
STARTCHAR Uring
ENCODING 366
SWIDTH 722 0
DWIDTH 12 0
BBX 10 16 1 0
BITMAP
0800
1400
1400
0800
0000
F1C0
6080
6080
6080
6080
6080
6080
6080
6080
2100
1E00
ENDCHAR
STARTCHAR uring
ENCODING 367
SWIDTH 556 0
DWIDTH 9 0
BBX 8 13 0 0
BITMAP
10
28
28
10
00
EE
66
66
66
66
66
6F
36
ENDCHAR
STARTCHAR Uhungarumlaut
ENCODING 368
SWIDTH 722 0
DWIDTH 12 0
BBX 10 15 1 0
BITMAP
1B00
1200
2400
0000
F1C0
6080
6080
6080
6080
6080
6080
6080
6080
2100
1E00
ENDCHAR
STARTCHAR uhungarumlaut
ENCODING 369
SWIDTH 556 0
DWIDTH 9 0
BBX 8 12 0 0
BITMAP
1B
12
24
00
EE
66
66
66
66
66
6F
36
ENDCHAR
STARTCHAR Uogonek
ENCODING 370
SWIDTH 722 0
DWIDTH 12 0
BBX 10 14 1 -3
BITMAP
F1C0
6080
6080
6080
6080
6080
6080
6080
6080
2100
1E00
0800
0800
0600
ENDCHAR
STARTCHAR uogonek
ENCODING 371
SWIDTH 556 0
DWIDTH 9 0
BBX 8 11 0 -3
BITMAP
EE
66
66
66
66
66
6F
3E
10
10
0C
ENDCHAR
STARTCHAR Wcircumflex
ENCODING 372
SWIDTH 1000 0
DWIDTH 17 0
BBX 17 15 0 0
BITMAP
008000
01C000
022000
000000
FBEF80
70C300
30C200
38E200
19E600
1D6400
0D7C00
0F3800
063800
061000
021000
ENDCHAR
STARTCHAR wcircumflex
ENCODING 373
SWIDTH 722 0
DWIDTH 12 0
BBX 12 12 0 0
BITMAP
0400
0E00
1100
0000
EF70
6620
6620
7740
3740
3980
1980
1100
ENDCHAR
STARTCHAR Ycircumflex
ENCODING 374
SWIDTH 722 0
DWIDTH 12 0
BBX 11 15 0 0
BITMAP
0400
0E00
1100
0000
F8E0
7040
3880
1880
1D00
0F00
0600
0600
0600
0600
0F00
ENDCHAR
STARTCHAR ycircumflex
ENCODING 375
SWIDTH 500 0
DWIDTH 8 0
BBX 8 16 0 -4
BITMAP
10
38
44
00
F7
62
62
34
34
1C
18
18
10
10
E0
C0
ENDCHAR
STARTCHAR Ydieresis
ENCODING 376
SWIDTH 722 0
DWIDTH 12 0
BBX 11 12 0 0
BITMAP
1B00
1B00
0000
F8E0
7040
3880
1F00
0E00
0E00
0E00
0E00
1F00
ENDCHAR
STARTCHAR Zacute
ENCODING 377
SWIDTH 667 0
DWIDTH 11 0
BBX 10 15 0 0
BITMAP
0600
0400
0800
0000
FFC0
C1C0
8380
0700
0E00
0E00
1C00
3800
7040
F0C0
FFC0
ENDCHAR
STARTCHAR zacute
ENCODING 378
SWIDTH 444 0
DWIDTH 7 0
BBX 7 12 0 0
BITMAP
0C
08
10
00
FE
8C
98
18
30
72
62
FE
ENDCHAR
STARTCHAR Zdotaccent
ENCODING 379
SWIDTH 667 0
DWIDTH 11 0
BBX 10 14 0 0
BITMAP
0C00
0C00
0000
FFC0
C1C0
8380
0700
0E00
0E00
1C00
3800
7040
F0C0
FFC0
ENDCHAR
STARTCHAR zdotaccent
ENCODING 380
SWIDTH 444 0
DWIDTH 7 0
BBX 7 11 0 0
BITMAP
30
30
00
FE
8C
98
18
30
72
62
FE
ENDCHAR
STARTCHAR Zcaron
ENCODING 381
SWIDTH 667 0
DWIDTH 11 0
BBX 10 13 0 0
BITMAP
2200
1C00
0800
0000
FFC0
C780
8700
0E00
1E00
3C00
3840
78C0
FFC0
ENDCHAR
STARTCHAR zcaron
ENCODING 382
SWIDTH 444 0
DWIDTH 7 0
BBX 7 12 0 0
BITMAP
44
38
10
00
FE
8C
98
18
30
72
62
FE
ENDCHAR
STARTCHAR uni0186
ENCODING 390
SWIDTH 722 0
DWIDTH 11 0
BBX 9 11 1 0
BITMAP
3E00
6700
8300
0180
0180
0180
0180
8180
C100
E300
BC00
ENDCHAR
STARTCHAR uni0189
ENCODING 393
SWIDTH 722 0
DWIDTH 11 0
BBX 9 11 1 0
BITMAP
FC00
6600
6300
6180
6180
F980
6180
6180
6300
6600
FC00
ENDCHAR
STARTCHAR uni018E
ENCODING 398
SWIDTH 667 0
DWIDTH 10 0
BBX 8 11 1 0
BITMAP
FF
C6
86
06
46
7E
46
06
86
C6
FF
ENDCHAR
STARTCHAR florin
ENCODING 402
SWIDTH 500 0
DWIDTH 8 0
BBX 8 15 0 -3
BITMAP
06
0B
18
18
7E
18
18
18
30
30
30
30
30
A0
C0
ENDCHAR
STARTCHAR uni0197
ENCODING 407
SWIDTH 389 0
DWIDTH 6 0
BBX 4 11 1 0
BITMAP
F0
60
60
60
60
F0
60
60
60
60
F0
ENDCHAR
STARTCHAR uni019A
ENCODING 410
SWIDTH 278 0
DWIDTH 5 0
BBX 4 11 0 0
BITMAP
E0
60
60
60
60
F0
60
60
60
60
F0
ENDCHAR
STARTCHAR uni019D
ENCODING 413
SWIDTH 722 0
DWIDTH 12 0
BBX 12 15 -1 -4
BITMAP
3C70
1C20
1620
1620
1320
11A0
11E0
18E0
1860
1860
1820
1800
D800
D000
6000
ENDCHAR
STARTCHAR uni019F
ENCODING 415
SWIDTH 778 0
DWIDTH 12 0
BBX 10 11 1 0
BITMAP
1E00
6180
4080
C0C0
C0C0
FFC0
C0C0
C0C0
4080
6180
1E00
ENDCHAR
STARTCHAR Ohorn
ENCODING 416
SWIDTH 778 0
DWIDTH 12 0
BBX 11 11 1 0
BITMAP
1E60
61E0
40A0
C0E0
C0C0
C0C0
C0C0
C0C0
4080
6180
1E00
ENDCHAR
STARTCHAR ohorn
ENCODING 417
SWIDTH 500 0
DWIDTH 8 0
BBX 9 8 0 0
BITMAP
3980
6D80
C680
C680
C700
C600
6C00
3800
ENDCHAR
STARTCHAR uni01A7
ENCODING 423
SWIDTH 556 0
DWIDTH 9 0
BBX 8 11 0 0
BITMAP
BC
C2
83
07
1E
3C
70
E0
C1
43
3D
ENDCHAR
STARTCHAR uni01A8
ENCODING 424
SWIDTH 389 0
DWIDTH 6 0
BBX 5 8 0 0
BITMAP
F0
98
38
70
E0
C8
D8
68
ENDCHAR
STARTCHAR uni01AE
ENCODING 430
SWIDTH 667 0
DWIDTH 11 0
BBX 10 15 1 -4
BITMAP
FFC0
CCC0
8C40
0C00
0C00
0C00
0C00
0C00
0C00
0C00
0C00
0C00
0D80
0580
0300
ENDCHAR
STARTCHAR Uhorn
ENCODING 431
SWIDTH 722 0
DWIDTH 12 0
BBX 11 11 1 0
BITMAP
F1E0
60E0
60A0
60A0
60C0
6080
6080
6080
6080
2100
1E00
ENDCHAR
STARTCHAR uhorn
ENCODING 432
SWIDTH 556 0
DWIDTH 9 0
BBX 10 8 0 0
BITMAP
EEC0
66C0
6640
6640
6680
6600
6F00
3600
ENDCHAR
STARTCHAR uni01B5
ENCODING 437
SWIDTH 667 0
DWIDTH 11 0
BBX 10 11 0 0
BITMAP
FFC0
C1C0
8380
0700
0E00
1E00
1C00
3800
7040
F0C0
FFC0
ENDCHAR
STARTCHAR uni01B6
ENCODING 438
SWIDTH 444 0
DWIDTH 7 0
BBX 7 8 0 0
BITMAP
FE
8C
98
3C
30
72
62
FE
ENDCHAR
STARTCHAR uni01BB
ENCODING 443
SWIDTH 500 0
DWIDTH 8 0
BBX 7 11 0 0
BITMAP
38
7C
9C
0C
0C
FE
18
10
22
7C
FC
ENDCHAR
STARTCHAR uni01BC
ENCODING 444
SWIDTH 500 0
DWIDTH 8 0
BBX 8 11 0 0
BITMAP
1F
3E
20
38
7C
0E
06
06
C6
CC
70
ENDCHAR
STARTCHAR uni01C0
ENCODING 448
SWIDTH 220 0
DWIDTH 4 0
BBX 1 14 1 -3
BITMAP
80
80
80
80
80
80
80
80
80
80
80
80
80
80
ENDCHAR
STARTCHAR uni01C2
ENCODING 450
SWIDTH 570 0
DWIDTH 9 0
BBX 7 14 1 -2
BITMAP
10
10
10
10
10
FE
FE
10
FE
FE
10
10
10
10
ENDCHAR
STARTCHAR uni01C3
ENCODING 451
SWIDTH 333 0
DWIDTH 6 0
BBX 2 11 2 0
BITMAP
C0
C0
C0
C0
C0
80
80
00
00
C0
C0
ENDCHAR
STARTCHAR uni01CD
ENCODING 461
SWIDTH 722 0
DWIDTH 12 0
BBX 11 15 0 0
BITMAP
1100
0E00
0400
0000
0400
0E00
0E00
1B00
1300
3300
2180
7F80
40C0
C0C0
E1E0
ENDCHAR
STARTCHAR uni01CE
ENCODING 462
SWIDTH 500 0
DWIDTH 8 0
BBX 8 12 0 0
BITMAP
44
38
10
00
38
CC
CC
1C
6C
CC
CD
76
ENDCHAR
STARTCHAR uni01CF
ENCODING 463
SWIDTH 389 0
DWIDTH 6 0
BBX 5 15 1 0
BITMAP
88
70
20
00
F0
60
60
60
60
60
60
60
60
60
F0
ENDCHAR
STARTCHAR uni01D0
ENCODING 464
SWIDTH 278 0
DWIDTH 5 0
BBX 5 12 -1 0
BITMAP
88
70
20
00
70
30
30
30
30
30
30
78
ENDCHAR
STARTCHAR uni01D1
ENCODING 465
SWIDTH 778 0
DWIDTH 12 0
BBX 10 15 1 0
BITMAP
1100
0E00
0400
0000
1E00
6180
4080
C0C0
C0C0
C0C0
C0C0
C0C0
4080
6180
1E00
ENDCHAR
STARTCHAR uni01D2
ENCODING 466
SWIDTH 500 0
DWIDTH 8 0
BBX 7 12 0 0
BITMAP
44
38
10
00
38
6C
C6
C6
C6
C6
6C
38
ENDCHAR
STARTCHAR uni01D3
ENCODING 467
SWIDTH 722 0
DWIDTH 12 0
BBX 10 15 1 0
BITMAP
2200
1C00
0800
0000
F1C0
6080
6080
6080
6080
6080
6080
6080
6080
2100
1E00
ENDCHAR
STARTCHAR uni01D4
ENCODING 468
SWIDTH 556 0
DWIDTH 9 0
BBX 8 12 0 0
BITMAP
44
38
10
00
EE
66
66
66
66
66
6F
36
ENDCHAR
STARTCHAR uni01D5
ENCODING 469
SWIDTH 722 0
DWIDTH 12 0
BBX 10 16 1 0
BITMAP
3E00
0000
3300
3300
0000
F1C0
6080
6080
6080
6080
6080
6080
6080
6080
2100
1E00
ENDCHAR
STARTCHAR uni01D6
ENCODING 470
SWIDTH 556 0
DWIDTH 9 0
BBX 8 13 0 0
BITMAP
7C
00
6C
6C
00
EE
66
66
66
66
66
6F
36
ENDCHAR
STARTCHAR uni01D7
ENCODING 471
SWIDTH 722 0
DWIDTH 12 0
BBX 10 18 1 0
BITMAP
0600
0400
0800
0000
3300
3300
0000
F1C0
6080
6080
6080
6080
6080
6080
6080
6080
2100
1E00
ENDCHAR
STARTCHAR uni01D8
ENCODING 472
SWIDTH 556 0
DWIDTH 9 0
BBX 8 15 0 0
BITMAP
0C
08
10
00
6C
6C
00
EE
66
66
66
66
66
6F
36
ENDCHAR
STARTCHAR uni01D9
ENCODING 473
SWIDTH 722 0
DWIDTH 12 0
BBX 10 18 1 0
BITMAP
2200
1C00
0800
0000
3300
3300
0000
F1C0
6080
6080
6080
6080
6080
6080
6080
6080
2100
1E00
ENDCHAR
STARTCHAR uni01DA
ENCODING 474
SWIDTH 556 0
DWIDTH 9 0
BBX 8 15 0 0
BITMAP
44
38
10
00
6C
6C
00
EE
66
66
66
66
66
6F
36
ENDCHAR
STARTCHAR uni01DB
ENCODING 475
SWIDTH 722 0
DWIDTH 12 0
BBX 10 18 1 0
BITMAP
1800
0800
0400
0000
3300
3300
0000
F1C0
6080
6080
6080
6080
6080
6080
6080
6080
2100
1E00
ENDCHAR
STARTCHAR uni01DC
ENCODING 476
SWIDTH 556 0
DWIDTH 9 0
BBX 8 15 0 0
BITMAP
30
10
08
00
6C
6C
00
EE
66
66
66
66
66
6F
36
ENDCHAR
STARTCHAR uni01DD
ENCODING 477
SWIDTH 444 0
DWIDTH 7 0
BBX 6 8 0 0
BITMAP
70
98
0C
0C
FC
CC
D8
70
ENDCHAR
STARTCHAR uni01DE
ENCODING 478
SWIDTH 722 0
DWIDTH 12 0
BBX 11 16 0 0
BITMAP
1F00
0000
1B00
1B00
0000
0400
0E00
0E00
1B00
1300
3300
2180
7F80
40C0
C0C0
E1E0
ENDCHAR
STARTCHAR uni01DF
ENCODING 479
SWIDTH 500 0
DWIDTH 8 0
BBX 8 13 0 0
BITMAP
7C
00
6C
6C
00
38
CC
CC
1C
6C
CC
CD
76
ENDCHAR
STARTCHAR uni01E0
ENCODING 480
SWIDTH 722 0
DWIDTH 12 0
BBX 11 16 0 0
BITMAP
1F00
0000
0600
0600
0000
0400
0E00
0E00
1B00
1300
3300
2180
7F80
40C0
C0C0
E1E0
ENDCHAR
STARTCHAR uni01E1
ENCODING 481
SWIDTH 500 0
DWIDTH 8 0
BBX 8 13 0 0
BITMAP
7C
00
30
30
00
38
CC
CC
1C
6C
CC
CD
76
ENDCHAR
STARTCHAR uni01E2
ENCODING 482
SWIDTH 1000 0
DWIDTH 16 0
BBX 14 13 1 0
BITMAP
07C0
0000
0FF8
0718
0B08
0B00
1320
1FE0
2320
2300
4304
430C
E7FC
ENDCHAR
STARTCHAR uni01E3
ENCODING 483
SWIDTH 722 0
DWIDTH 12 0
BBX 10 10 1 0
BITMAP
1F00
0000
3380
CEC0
CCC0
1FC0
6C00
CC00
D640
6380
ENDCHAR
STARTCHAR uni01E4
ENCODING 484
SWIDTH 778 0
DWIDTH 12 0
BBX 10 11 1 0
BITMAP
1E80
6380
4180
C080
C000
C000
C7C0
C3C0
C180
6180
3F00
ENDCHAR
STARTCHAR uni01E5
ENCODING 485
SWIDTH 500 0
DWIDTH 8 0
BBX 7 12 0 -4
BITMAP
32
4E
CC
CC
C8
70
40
FC
7E
FE
84
78
ENDCHAR
STARTCHAR Gcaron
ENCODING 486
SWIDTH 778 0
DWIDTH 12 0
BBX 10 15 1 0
BITMAP
1100
0E00
0400
0000
1E80
6380
4180
C080
C000
C000
C7C0
C180
C180
6180
3F00
ENDCHAR
STARTCHAR gcaron
ENCODING 487
SWIDTH 500 0
DWIDTH 8 0
BBX 7 16 0 -4
BITMAP
44
38
10
00
32
4E
CC
CC
C8
70
40
FC
7E
82
84
78
ENDCHAR
STARTCHAR uni01E8
ENCODING 488
SWIDTH 778 0
DWIDTH 13 0
BBX 11 15 1 0
BITMAP
2200
1C00
0800
0000
FBC0
6100
6200
6400
6800
7800
6C00
6600
6300
6180
FBE0
ENDCHAR
STARTCHAR uni01E9
ENCODING 489
SWIDTH 556 0
DWIDTH 9 0
BBX 9 15 0 0
BITMAP
8800
7000
2000
0000
E000
6000
6000
6F00
6400
6800
7800
7C00
6E00
6700
F780
ENDCHAR
STARTCHAR uni01EA
ENCODING 490
SWIDTH 778 0
DWIDTH 12 0
BBX 10 14 1 -3
BITMAP
1E00
6180
4080
C0C0
C0C0
C0C0
C0C0
C0C0
4080
6180
1E00
0800
0800
0600
ENDCHAR
STARTCHAR uni01EB
ENCODING 491
SWIDTH 500 0
DWIDTH 8 0
BBX 7 11 0 -3
BITMAP
38
6C
C6
C6
C6
C6
6C
38
20
20
18
ENDCHAR
STARTCHAR uni01EC
ENCODING 492
SWIDTH 778 0
DWIDTH 12 0
BBX 10 16 1 -3
BITMAP
1F00
0000
1E00
6180
4080
C0C0
C0C0
C0C0
C0C0
C0C0
4080
6180
1E00
0800
0800
0600
ENDCHAR
STARTCHAR uni01ED
ENCODING 493
SWIDTH 500 0
DWIDTH 8 0
BBX 7 13 0 -3
BITMAP
7C
00
38
6C
C6
C6
C6
C6
6C
38
20
20
18
ENDCHAR
STARTCHAR uni01F0
ENCODING 496
SWIDTH 333 0
DWIDTH 5 0
BBX 6 16 -2 -4
BITMAP
44
38
10
00
38
18
18
18
18
18
18
18
18
D8
D0
60
ENDCHAR
STARTCHAR uni01F4
ENCODING 500
SWIDTH 778 0
DWIDTH 12 0
BBX 10 15 1 0
BITMAP
0300
0200
0400
0000
1E80
6380
4180
C080
C000
C000
C7C0
C180
C180
6180
3F00
ENDCHAR
STARTCHAR uni01F5
ENCODING 501
SWIDTH 500 0
DWIDTH 8 0
BBX 7 16 0 -4
BITMAP
0C
08
10
00
32
4E
CC
CC
C8
70
40
FC
7E
82
84
78
ENDCHAR
STARTCHAR uni01F8
ENCODING 504
SWIDTH 722 0
DWIDTH 12 0
BBX 10 15 1 0
BITMAP
1800
0800
0400
0000
F1C0
7080
5880
5880
4C80
4680
4780
4380
4180
4180
E080
ENDCHAR
STARTCHAR uni01F9
ENCODING 505
SWIDTH 556 0
DWIDTH 9 0
BBX 8 12 0 0
BITMAP
30
10
08
00
EC
7E
66
66
66
66
66
F7
ENDCHAR
STARTCHAR Aringacute
ENCODING 506
SWIDTH 722 0
DWIDTH 12 0
BBX 11 20 0 0
BITMAP
0300
0200
0400
0000
0600
0900
0900
0600
0000
0400
0E00
0E00
1B00
1300
3300
2180
7F80
40C0
C0C0
E1E0
ENDCHAR
STARTCHAR aringacute
ENCODING 507
SWIDTH 500 0
DWIDTH 8 0
BBX 8 17 0 0
BITMAP
0C
08
10
00
10
28
28
10
00
38
CC
CC
1C
6C
CC
CD
76
ENDCHAR
STARTCHAR AEacute
ENCODING 508
SWIDTH 1000 0
DWIDTH 16 0
BBX 14 15 1 0
BITMAP
00C0
0080
0100
0000
0FF8
0718
0B08
0B00
1320
1FE0
2320
2300
4304
430C
E7FC
ENDCHAR
STARTCHAR aeacute
ENCODING 509
SWIDTH 722 0
DWIDTH 12 0
BBX 10 12 1 0
BITMAP
0600
0400
0800
0000
3380
CEC0
CCC0
1FC0
6C00
CC00
D640
6380
ENDCHAR
STARTCHAR Oslashacute
ENCODING 510
SWIDTH 778 0
DWIDTH 13 0
BBX 10 17 1 -1
BITMAP
0300
0200
0400
0000
0040
1E80
6180
4180
C2C0
C2C0
C4C0
C8C0
C8C0
5080
6180
3E00
4000
ENDCHAR
STARTCHAR oslashacute
ENCODING 511
SWIDTH 500 0
DWIDTH 8 0
BBX 7 14 0 -1
BITMAP
0C
08
10
00
02
3C
6C
CE
D6
D6
E6
6C
78
80
ENDCHAR
STARTCHAR uni0200
ENCODING 512
SWIDTH 722 0
DWIDTH 12 0
BBX 11 15 0 0
BITMAP
3600
1200
0900
0000
0400
0E00
0E00
1B00
1300
3300
2180
7F80
40C0
C0C0
E1E0
ENDCHAR
STARTCHAR uni0201
ENCODING 513
SWIDTH 500 0
DWIDTH 8 0
BBX 8 12 0 0
BITMAP
D8
48
24
00
38
CC
CC
1C
6C
CC
CD
76
ENDCHAR
STARTCHAR uni0202
ENCODING 514
SWIDTH 722 0
DWIDTH 12 0
BBX 11 14 0 0
BITMAP
0E00
1100
0000
0400
0E00
0E00
1B00
1300
3300
2180
7F80
40C0
C0C0
E1E0
ENDCHAR
STARTCHAR uni0203
ENCODING 515
SWIDTH 500 0
DWIDTH 8 0
BBX 8 11 0 0
BITMAP
38
44
00
38
CC
CC
1C
6C
CC
CD
76
ENDCHAR
STARTCHAR uni0204
ENCODING 516
SWIDTH 667 0
DWIDTH 10 0
BBX 8 15 1 0
BITMAP
D8
48
24
00
FF
63
61
60
62
7E
62
60
61
63
FF
ENDCHAR
STARTCHAR uni0205
ENCODING 517
SWIDTH 444 0
DWIDTH 7 0
BBX 6 12 0 0
BITMAP
D8
48
24
00
38
6C
CC
FC
C0
C0
64
38
ENDCHAR
STARTCHAR uni0206
ENCODING 518
SWIDTH 667 0
DWIDTH 10 0
BBX 8 14 1 0
BITMAP
1C
22
00
FF
63
61
60
62
7E
62
60
61
63
FF
ENDCHAR
STARTCHAR uni0207
ENCODING 519
SWIDTH 444 0
DWIDTH 7 0
BBX 6 11 0 0
BITMAP
38
44
00
38
6C
CC
FC
C0
C0
64
38
ENDCHAR
STARTCHAR uni0208
ENCODING 520
SWIDTH 389 0
DWIDTH 6 0
BBX 6 15 -1 0
BITMAP
D8
48
24
00
3C
18
18
18
18
18
18
18
18
18
3C
ENDCHAR
STARTCHAR uni0209
ENCODING 521
SWIDTH 278 0
DWIDTH 5 0
BBX 6 12 -2 0
BITMAP
D8
48
24
00
38
18
18
18
18
18
18
3C
ENDCHAR
STARTCHAR uni020A
ENCODING 522
SWIDTH 389 0
DWIDTH 6 0
BBX 5 14 1 0
BITMAP
70
88
00
F0
60
60
60
60
60
60
60
60
60
F0
ENDCHAR
STARTCHAR uni020B
ENCODING 523
SWIDTH 278 0
DWIDTH 5 0
BBX 5 11 -1 0
BITMAP
70
88
00
70
30
30
30
30
30
30
78
ENDCHAR
STARTCHAR uni020C
ENCODING 524
SWIDTH 778 0
DWIDTH 12 0
BBX 10 15 1 0
BITMAP
6C00
2400
1200
0000
1E00
6180
4080
C0C0
C0C0
C0C0
C0C0
C0C0
4080
6180
1E00
ENDCHAR
STARTCHAR uni020D
ENCODING 525
SWIDTH 500 0
DWIDTH 8 0
BBX 7 12 0 0
BITMAP
D8
48
24
00
38
6C
C6
C6
C6
C6
6C
38
ENDCHAR
STARTCHAR uni020E
ENCODING 526
SWIDTH 778 0
DWIDTH 12 0
BBX 10 14 1 0
BITMAP
0E00
1100
0000
1E00
6180
4080
C0C0
C0C0
C0C0
C0C0
C0C0
4080
6180
1E00
ENDCHAR
STARTCHAR uni020F
ENCODING 527
SWIDTH 500 0
DWIDTH 8 0
BBX 7 11 0 0
BITMAP
38
44
00
38
6C
C6
C6
C6
C6
6C
38
ENDCHAR
STARTCHAR uni0210
ENCODING 528
SWIDTH 722 0
DWIDTH 12 0
BBX 10 15 1 0
BITMAP
6C00
2400
1200
0000
FE00
6700
6300
6300
6600
7C00
6C00
6600
6300
6180
F3C0
ENDCHAR
STARTCHAR uni0211
ENCODING 529
SWIDTH 444 0
DWIDTH 7 0
BBX 7 12 -1 0
BITMAP
D8
48
24
00
76
3E
30
30
30
30
30
78
ENDCHAR
STARTCHAR uni0212
ENCODING 530
SWIDTH 722 0
DWIDTH 12 0
BBX 10 14 1 0
BITMAP
1C00
2200
0000
FE00
6700
6300
6300
6600
7C00
6C00
6600
6300
6180
F3C0
ENDCHAR
STARTCHAR uni0213
ENCODING 531
SWIDTH 444 0
DWIDTH 7 0
BBX 6 11 0 0
BITMAP
38
44
00
EC
7C
60
60
60
60
60
F0
ENDCHAR
STARTCHAR uni0214
ENCODING 532
SWIDTH 722 0
DWIDTH 12 0
BBX 10 15 1 0
BITMAP
6C00
2400
1200
0000
F1C0
6080
6080
6080
6080
6080
6080
6080
6080
2100
1E00
ENDCHAR
STARTCHAR uni0215
ENCODING 533
SWIDTH 556 0
DWIDTH 9 0
BBX 8 12 0 0
BITMAP
D8
48
24
00
EE
66
66
66
66
66
6F
36
ENDCHAR
STARTCHAR uni0216
ENCODING 534
SWIDTH 722 0
DWIDTH 12 0
BBX 10 14 1 0
BITMAP
1C00
2200
0000
F1C0
6080
6080
6080
6080
6080
6080
6080
6080
2100
1E00
ENDCHAR
STARTCHAR uni0217
ENCODING 535
SWIDTH 556 0
DWIDTH 9 0
BBX 8 11 0 0
BITMAP
38
44
00
EE
66
66
66
66
66
6F
36
ENDCHAR
STARTCHAR Scommaaccent
ENCODING 536
SWIDTH 556 0
DWIDTH 9 0
BBX 8 17 0 -6
BITMAP
3D
43
C1
E0
78
3C
0E
07
83
C2
BC
00
18
18
08
08
10
ENDCHAR
STARTCHAR scommaaccent
ENCODING 537
SWIDTH 389 0
DWIDTH 6 0
BBX 5 14 0 -6
BITMAP
78
C8
E0
70
38
98
D8
B0
00
30
30
10
10
20
ENDCHAR
STARTCHAR Tcommaaccent
ENCODING 538
SWIDTH 667 0
DWIDTH 11 0
BBX 10 17 1 -6
BITMAP
FFC0
CCC0
8C40
0C00
0C00
0C00
0C00
0C00
0C00
0C00
1E00
0000
0C00
0C00
0400
0400
0800
ENDCHAR
STARTCHAR tcommaaccent
ENCODING 539
SWIDTH 333 0
DWIDTH 6 0
BBX 5 17 0 -6
BITMAP
20
20
60
F0
60
60
60
60
60
68
30
00
30
30
10
10
20
ENDCHAR
STARTCHAR uni021E
ENCODING 542
SWIDTH 778 0
DWIDTH 12 0
BBX 10 15 1 0
BITMAP
1100
0E00
0400
0000
F3C0
6180
6180
6180
6180
7F80
6180
6180
6180
6180
F3C0
ENDCHAR
STARTCHAR uni021F
ENCODING 543
SWIDTH 556 0
DWIDTH 9 0
BBX 8 15 0 0
BITMAP
88
70
20
00
E0
60
60
6C
76
66
66
66
66
66
EF
ENDCHAR
STARTCHAR uni0226
ENCODING 550
SWIDTH 722 0
DWIDTH 12 0
BBX 11 14 0 0
BITMAP
0600
0600
0000
0400
0E00
0E00
1B00
1300
3300
2180
7F80
40C0
C0C0
E1E0
ENDCHAR
STARTCHAR uni0227
ENCODING 551
SWIDTH 500 0
DWIDTH 8 0
BBX 8 11 0 0
BITMAP
30
30
00
38
CC
CC
1C
6C
CC
CD
76
ENDCHAR
STARTCHAR uni0228
ENCODING 552
SWIDTH 667 0
DWIDTH 10 0
BBX 8 15 1 -4
BITMAP
FF
63
61
60
62
7E
62
60
61
63
FF
10
18
44
38
ENDCHAR
STARTCHAR uni0229
ENCODING 553
SWIDTH 444 0
DWIDTH 7 0
BBX 6 12 0 -4
BITMAP
38
6C
CC
FC
C0
C0
64
38
20
30
88
70
ENDCHAR
STARTCHAR uni022A
ENCODING 554
SWIDTH 778 0
DWIDTH 12 0
BBX 10 16 1 0
BITMAP
1F00
0000
3300
3300
0000
1E00
6180
4080
C0C0
C0C0
C0C0
C0C0
C0C0
4080
6180
1E00
ENDCHAR
STARTCHAR uni022B
ENCODING 555
SWIDTH 500 0
DWIDTH 8 0
BBX 7 13 0 0
BITMAP
7C
00
6C
6C
00
38
6C
C6
C6
C6
C6
6C
38
ENDCHAR
STARTCHAR uni022C
ENCODING 556
SWIDTH 778 0
DWIDTH 12 0
BBX 10 16 1 0
BITMAP
1F00
0000
1D00
2E00
0000
1E00
6180
4080
C0C0
C0C0
C0C0
C0C0
C0C0
4080
6180
1E00
ENDCHAR
STARTCHAR uni022D
ENCODING 557
SWIDTH 500 0
DWIDTH 8 0
BBX 7 13 0 0
BITMAP
7C
00
34
58
00
38
6C
C6
C6
C6
C6
6C
38
ENDCHAR
STARTCHAR uni022E
ENCODING 558
SWIDTH 778 0
DWIDTH 12 0
BBX 10 14 1 0
BITMAP
0C00
0C00
0000
1E00
6180
4080
C0C0
C0C0
C0C0
C0C0
C0C0
4080
6180
1E00
ENDCHAR
STARTCHAR uni022F
ENCODING 559
SWIDTH 500 0
DWIDTH 8 0
BBX 7 11 0 0
BITMAP
18
18
00
38
6C
C6
C6
C6
C6
6C
38
ENDCHAR
STARTCHAR uni0230
ENCODING 560
SWIDTH 778 0
DWIDTH 12 0
BBX 10 16 1 0
BITMAP
1F00
0000
0C00
0C00
0000
1E00
6180
4080
C0C0
C0C0
C0C0
C0C0
C0C0
4080
6180
1E00
ENDCHAR
STARTCHAR uni0231
ENCODING 561
SWIDTH 500 0
DWIDTH 8 0
BBX 7 13 0 0
BITMAP
7C
00
18
18
00
38
6C
C6
C6
C6
C6
6C
38
ENDCHAR
STARTCHAR uni0232
ENCODING 562
SWIDTH 722 0
DWIDTH 12 0
BBX 11 13 0 0
BITMAP
1F00
0000
F8E0
7040
3880
1880
1D00
0F00
0600
0600
0600
0600
0F00
ENDCHAR
STARTCHAR uni0233
ENCODING 563
SWIDTH 500 0
DWIDTH 8 0
BBX 8 14 0 -4
BITMAP
7C
00
F7
62
62
34
34
1C
18
18
10
10
E0
C0
ENDCHAR
STARTCHAR uni0250
ENCODING 592
SWIDTH 500 0
DWIDTH 8 0
BBX 8 8 0 0
BITMAP
6E
B3
33
36
38
33
33
1C
ENDCHAR
STARTCHAR uni0254
ENCODING 596
SWIDTH 444 0
DWIDTH 7 0
BBX 6 8 0 0
BITMAP
70
D8
CC
0C
0C
0C
98
70
ENDCHAR
STARTCHAR uni0258
ENCODING 600
SWIDTH 444 0
DWIDTH 7 0
BBX 6 8 0 0
BITMAP
70
D8
CC
FC
0C
0C
98
70
ENDCHAR
STARTCHAR uni0259
ENCODING 601
SWIDTH 444 0
DWIDTH 7 0
BBX 6 8 0 0
BITMAP
70
98
0C
0C
FC
CC
D8
70
ENDCHAR
STARTCHAR uni025F
ENCODING 607
SWIDTH 333 0
DWIDTH 6 0
BBX 6 11 0 -3
BITMAP
3C
18
18
18
18
18
18
3C
18
D8
60
ENDCHAR
STARTCHAR uni0265
ENCODING 613
SWIDTH 556 0
DWIDTH 9 0
BBX 8 11 0 -3
BITMAP
F7
66
66
66
66
66
6E
36
06
06
07
ENDCHAR
STARTCHAR uni0275
ENCODING 629
SWIDTH 500 0
DWIDTH 8 0
BBX 7 8 0 0
BITMAP
38
6C
C6
FE
C6
C6
6C
38
ENDCHAR
STARTCHAR uni0279
ENCODING 633
SWIDTH 444 0
DWIDTH 7 0
BBX 6 8 0 0
BITMAP
3C
18
18
18
18
18
F8
DC
ENDCHAR
STARTCHAR uni0287
ENCODING 647
SWIDTH 333 0
DWIDTH 6 0
BBX 5 11 0 0
BITMAP
60
B0
30
30
30
30
30
78
30
20
20
ENDCHAR
STARTCHAR uni0288
ENCODING 648
SWIDTH 333 0
DWIDTH 6 0
BBX 6 15 0 -4
BITMAP
20
20
60
F0
60
60
60
60
60
60
60
60
6C
2C
18
ENDCHAR
STARTCHAR uni0289
ENCODING 649
SWIDTH 556 0
DWIDTH 9 0
BBX 8 8 0 0
BITMAP
EE
66
66
FF
66
66
6F
36
ENDCHAR
STARTCHAR uni028C
ENCODING 652
SWIDTH 500 0
DWIDTH 8 0
BBX 8 8 0 0
BITMAP
08
18
1C
2C
26
46
46
EF
ENDCHAR
STARTCHAR uni028D
ENCODING 653
SWIDTH 722 0
DWIDTH 12 0
BBX 12 8 0 0
BITMAP
0880
1980
19C0
2EC0
2EE0
4660
4660
EF70
ENDCHAR
STARTCHAR uni028E
ENCODING 654
SWIDTH 500 0
DWIDTH 8 0
BBX 8 12 0 0
BITMAP
03
07
08
08
18
18
38
2C
2C
46
46
EF
ENDCHAR
STARTCHAR uni029E
ENCODING 670
SWIDTH 556 0
DWIDTH 9 0
BBX 9 11 0 -3
BITMAP
F780
7300
3B00
1F00
0F00
0B00
1300
7B00
0300
0300
0380
ENDCHAR
STARTCHAR uni02BB
ENCODING 699
SWIDTH 333 0
DWIDTH 6 0
BBX 2 5 1 6
BITMAP
40
80
80
C0
C0
ENDCHAR
STARTCHAR afii57929
ENCODING 700
SWIDTH 333 0
DWIDTH 6 0
BBX 2 5 2 6
BITMAP
C0
C0
40
40
80
ENDCHAR
STARTCHAR afii64937
ENCODING 701
SWIDTH 333 0
DWIDTH 6 0
BBX 2 5 2 6
BITMAP
C0
C0
80
80
40
ENDCHAR
STARTCHAR circumflex
ENCODING 710
SWIDTH 333 0
DWIDTH 6 0
BBX 5 3 0 9
BITMAP
20
70
88
ENDCHAR
STARTCHAR caron
ENCODING 711
SWIDTH 333 0
DWIDTH 6 0
BBX 5 3 0 9
BITMAP
88
70
20
ENDCHAR
STARTCHAR uni02C8
ENCODING 712
SWIDTH 278 0
DWIDTH 5 0
BBX 2 5 2 6
BITMAP
C0
C0
C0
80
80
ENDCHAR
STARTCHAR macron
ENCODING 713
SWIDTH 333 0
DWIDTH 6 0
BBX 5 1 0 9
BITMAP
F8
ENDCHAR
STARTCHAR uni02CA
ENCODING 714
SWIDTH 333 0
DWIDTH 6 0
BBX 3 3 1 9
BITMAP
60
40
80
ENDCHAR
STARTCHAR uni02CB
ENCODING 715
SWIDTH 333 0
DWIDTH 6 0
BBX 3 3 2 9
BITMAP
C0
40
20
ENDCHAR
STARTCHAR uni02CD
ENCODING 717
SWIDTH 333 0
DWIDTH 6 0
BBX 5 1 0 -2
BITMAP
F8
ENDCHAR
STARTCHAR uni02CE
ENCODING 718
SWIDTH 333 0
DWIDTH 6 0
BBX 3 3 2 -4
BITMAP
C0
40
20
ENDCHAR
STARTCHAR uni02CF
ENCODING 719
SWIDTH 333 0
DWIDTH 6 0
BBX 3 3 1 -4
BITMAP
60
40
80
ENDCHAR
STARTCHAR breve
ENCODING 728
SWIDTH 333 0
DWIDTH 6 0
BBX 5 2 0 9
BITMAP
88
70
ENDCHAR
STARTCHAR dotaccent
ENCODING 729
SWIDTH 333 0
DWIDTH 6 0
BBX 2 2 2 9
BITMAP
C0
C0
ENDCHAR
STARTCHAR ring
ENCODING 730
SWIDTH 333 0
DWIDTH 6 0
BBX 3 4 1 9
BITMAP
40
A0
A0
40
ENDCHAR
STARTCHAR ogonek
ENCODING 731
SWIDTH 333 0
DWIDTH 6 0
BBX 3 4 1 -3
BITMAP
40
80
80
60
ENDCHAR
STARTCHAR tilde
ENCODING 732
SWIDTH 333 0
DWIDTH 6 0
BBX 5 2 0 9
BITMAP
68
B0
ENDCHAR
STARTCHAR hungarumlaut
ENCODING 733
SWIDTH 333 0
DWIDTH 6 0
BBX 6 3 0 9
BITMAP
6C
48
90
ENDCHAR
STARTCHAR uni02EE
ENCODING 750
SWIDTH 500 0
DWIDTH 8 0
BBX 6 5 1 6
BITMAP
CC
CC
44
44
88
ENDCHAR
STARTCHAR uni037E
ENCODING 894
SWIDTH 333 0
DWIDTH 5 0
BBX 2 10 1 -3
BITMAP
C0
C0
00
00
00
C0
C0
40
40
80
ENDCHAR
STARTCHAR tonos
ENCODING 900
SWIDTH 333 0
DWIDTH 6 0
BBX 3 3 1 9
BITMAP
60
40
80
ENDCHAR
STARTCHAR dieresistonos
ENCODING 901
SWIDTH 333 0
DWIDTH 6 0
BBX 5 6 0 9
BITMAP
18
10
20
00
D8
D8
ENDCHAR
STARTCHAR anoteleia
ENCODING 903
SWIDTH 250 0
DWIDTH 4 0
BBX 2 2 1 4
BITMAP
C0
C0
ENDCHAR
STARTCHAR mu
ENCODING 956
SWIDTH 556 0
DWIDTH 9 0
BBX 8 11 0 -3
BITMAP
EE
66
66
66
66
66
6F
76
40
60
60
ENDCHAR
STARTCHAR uni1E00
ENCODING 7680
SWIDTH 722 0
DWIDTH 12 0
BBX 11 16 0 -5
BITMAP
0400
0E00
0E00
1B00
1300
3300
2180
7F80
40C0
C0C0
E1E0
0000
0400
0A00
0A00
0400
ENDCHAR
STARTCHAR uni1E01
ENCODING 7681
SWIDTH 500 0
DWIDTH 8 0
BBX 8 13 0 -5
BITMAP
38
CC
CC
1C
6C
CC
CD
76
00
10
28
28
10
ENDCHAR
STARTCHAR uni1E02
ENCODING 7682
SWIDTH 667 0
DWIDTH 10 0
BBX 9 14 1 0
BITMAP
1800
1800
0000
FC00
6600
6300
6300
6600
7E00
6300
6180
6180
6300
FE00
ENDCHAR
STARTCHAR uni1E03
ENCODING 7683
SWIDTH 556 0
DWIDTH 9 0
BBX 8 14 0 0
BITMAP
30
30
00
E0
60
60
6C
76
63
63
63
63
76
EC
ENDCHAR
STARTCHAR uni1E04
ENCODING 7684
SWIDTH 667 0
DWIDTH 10 0
BBX 9 14 1 -3
BITMAP
FC00
6600
6300
6300
6600
7E00
6300
6180
6180
6300
FE00
0000
1800
1800
ENDCHAR
STARTCHAR uni1E05
ENCODING 7685
SWIDTH 556 0
DWIDTH 9 0
BBX 8 14 0 -3
BITMAP
E0
60
60
6C
76
63
63
63
63
76
EC
00
18
18
ENDCHAR
STARTCHAR uni1E06
ENCODING 7686
SWIDTH 667 0
DWIDTH 10 0
BBX 9 13 1 -2
BITMAP
FC00
6600
6300
6300
6600
7E00
6300
6180
6180
6300
FE00
0000
3E00
ENDCHAR
STARTCHAR uni1E07
ENCODING 7687
SWIDTH 556 0
DWIDTH 9 0
BBX 8 13 0 -2
BITMAP
E0
60
60
6C
76
63
63
63
63
76
EC
00
7C
ENDCHAR
STARTCHAR uni1E08
ENCODING 7688
SWIDTH 722 0
DWIDTH 11 0
BBX 9 19 1 -4
BITMAP
0600
0400
0800
0000
1E80
6380
4180
C080
C000
C000
C000
C000
6080
7300
3E00
0800
0C00
2200
1C00
ENDCHAR
STARTCHAR uni1E09
ENCODING 7689
SWIDTH 444 0
DWIDTH 7 0
BBX 6 16 0 -4
BITMAP
18
10
20
00
38
6C
CC
C0
C0
C0
64
38
20
30
88
70
ENDCHAR
STARTCHAR uni1E0A
ENCODING 7690
SWIDTH 722 0
DWIDTH 11 0
BBX 9 14 1 0
BITMAP
1800
1800
0000
FC00
6600
6300
6180
6180
6180
6180
6180
6300
6600
FC00
ENDCHAR
STARTCHAR uni1E0B
ENCODING 7691
SWIDTH 556 0
DWIDTH 9 0
BBX 8 14 0 0
BITMAP
0C
0C
00
0E
06
06
36
6E
C6
C6
C6
C6
4E
37
ENDCHAR
STARTCHAR uni1E0C
ENCODING 7692
SWIDTH 722 0
DWIDTH 11 0
BBX 9 14 1 -3
BITMAP
FC00
6600
6300
6180
6180
6180
6180
6180
6300
6600
FC00
0000
1800
1800
ENDCHAR
STARTCHAR uni1E0D
ENCODING 7693
SWIDTH 556 0
DWIDTH 9 0
BBX 8 14 0 -3
BITMAP
0E
06
06
36
6E
C6
C6
C6
C6
4E
37
00
18
18
ENDCHAR
STARTCHAR uni1E0E
ENCODING 7694
SWIDTH 722 0
DWIDTH 11 0
BBX 9 13 1 -2
BITMAP
FC00
6600
6300
6180
6180
6180
6180
6180
6300
6600
FC00
0000
7C00
ENDCHAR
STARTCHAR uni1E0F
ENCODING 7695
SWIDTH 556 0
DWIDTH 9 0
BBX 8 13 0 -2
BITMAP
0E
06
06
36
6E
C6
C6
C6
C6
4E
37
00
3E
ENDCHAR
STARTCHAR uni1E10
ENCODING 7696
SWIDTH 722 0
DWIDTH 11 0
BBX 9 15 1 -4
BITMAP
FC00
6600
6300
6180
6180
6180
6180
6180
6300
6600
FC00
1000
1800
4400
3800
ENDCHAR
STARTCHAR uni1E11
ENCODING 7697
SWIDTH 556 0
DWIDTH 9 0
BBX 8 15 0 -4
BITMAP
0E
06
06
36
6E
C6
C6
C6
C6
4E
37
08
0C
22
1C
ENDCHAR
STARTCHAR uni1E12
ENCODING 7698
SWIDTH 722 0
DWIDTH 11 0
BBX 9 15 1 -4
BITMAP
FC00
6600
6300
6180
6180
6180
6180
6180
6300
6600
FC00
0000
1000
3800
4400
ENDCHAR
STARTCHAR uni1E13
ENCODING 7699
SWIDTH 556 0
DWIDTH 9 0
BBX 8 15 0 -4
BITMAP
0E
06
06
36
6E
C6
C6
C6
C6
4E
37
00
08
1C
22
ENDCHAR
STARTCHAR uni1E14
ENCODING 7700
SWIDTH 667 0
DWIDTH 10 0
BBX 8 17 1 0
BITMAP
30
10
08
00
3E
00
FF
63
61
60
62
7E
62
60
61
63
FF
ENDCHAR
STARTCHAR uni1E15
ENCODING 7701
SWIDTH 444 0
DWIDTH 7 0
BBX 6 14 0 0
BITMAP
60
20
10
00
7C
00
38
6C
CC
FC
C0
C0
64
38
ENDCHAR
STARTCHAR uni1E16
ENCODING 7702
SWIDTH 667 0
DWIDTH 10 0
BBX 8 17 1 0
BITMAP
0C
08
10
00
3E
00
FF
63
61
60
62
7E
62
60
61
63
FF
ENDCHAR
STARTCHAR uni1E17
ENCODING 7703
SWIDTH 444 0
DWIDTH 7 0
BBX 6 14 0 0
BITMAP
0C
08
10
00
7C
00
38
6C
CC
FC
C0
C0
64
38
ENDCHAR
STARTCHAR uni1E18
ENCODING 7704
SWIDTH 667 0
DWIDTH 10 0
BBX 8 15 1 -4
BITMAP
FF
63
61
60
62
7E
62
60
61
63
FF
00
08
1C
22
ENDCHAR
STARTCHAR uni1E19
ENCODING 7705
SWIDTH 444 0
DWIDTH 7 0
BBX 6 12 0 -4
BITMAP
38
6C
CC
FC
C0
C0
64
38
00
20
70
88
ENDCHAR
STARTCHAR uni1E1A
ENCODING 7706
SWIDTH 667 0
DWIDTH 10 0
BBX 8 14 1 -3
BITMAP
FF
63
61
60
62
7E
62
60
61
63
FF
00
34
58
ENDCHAR
STARTCHAR uni1E1B
ENCODING 7707
SWIDTH 444 0
DWIDTH 7 0
BBX 6 11 0 -3
BITMAP
38
6C
CC
FC
C0
C0
64
38
00
68
B0
ENDCHAR
STARTCHAR uni1E1C
ENCODING 7708
SWIDTH 667 0
DWIDTH 10 0
BBX 8 18 1 -4
BITMAP
44
38
00
FF
63
61
60
62
7E
62
60
61
63
FF
10
18
44
38
ENDCHAR
STARTCHAR uni1E1D
ENCODING 7709
SWIDTH 444 0
DWIDTH 7 0
BBX 6 15 0 -4
BITMAP
44
38
00
38
6C
CC
FC
C0
C0
64
38
20
30
88
70
ENDCHAR
STARTCHAR uni1E1E
ENCODING 7710
SWIDTH 611 0
DWIDTH 10 0
BBX 8 14 1 0
BITMAP
18
18
00
FF
63
61
60
62
7E
62
60
60
60
F8
ENDCHAR
STARTCHAR uni1E1F
ENCODING 7711
SWIDTH 333 0
DWIDTH 6 0
BBX 6 14 0 0
BITMAP
30
30
00
18
6C
60
F0
60
60
60
60
60
60
F0
ENDCHAR
STARTCHAR uni1E20
ENCODING 7712
SWIDTH 778 0
DWIDTH 12 0
BBX 10 13 1 0
BITMAP
1F00
0000
1E80
6380
4180
C080
C000
C000
C7C0
C180
C180
6180
3F00
ENDCHAR
STARTCHAR uni1E21
ENCODING 7713
SWIDTH 500 0
DWIDTH 8 0
BBX 7 14 0 -4
BITMAP
7C
00
32
4E
CC
CC
C8
70
40
FC
7E
82
84
78
ENDCHAR
STARTCHAR uni1E22
ENCODING 7714
SWIDTH 778 0
DWIDTH 12 0
BBX 10 14 1 0
BITMAP
0C00
0C00
0000
F3C0
6180
6180
6180
6180
7F80
6180
6180
6180
6180
F3C0
ENDCHAR
STARTCHAR uni1E23
ENCODING 7715
SWIDTH 556 0
DWIDTH 9 0
BBX 8 14 0 0
BITMAP
30
30
00
E0
60
60
6C
76
66
66
66
66
66
EF
ENDCHAR
STARTCHAR uni1E24
ENCODING 7716
SWIDTH 778 0
DWIDTH 12 0
BBX 10 14 1 -3
BITMAP
F3C0
6180
6180
6180
6180
7F80
6180
6180
6180
6180
F3C0
0000
0C00
0C00
ENDCHAR
STARTCHAR uni1E25
ENCODING 7717
SWIDTH 556 0
DWIDTH 9 0
BBX 8 14 0 -3
BITMAP
E0
60
60
6C
76
66
66
66
66
66
EF
00
18
18
ENDCHAR
STARTCHAR uni1E26
ENCODING 7718
SWIDTH 778 0
DWIDTH 12 0
BBX 10 14 1 0
BITMAP
1B00
1B00
0000
F3C0
6180
6180
6180
6180
7F80
6180
6180
6180
6180
F3C0
ENDCHAR
STARTCHAR uni1E27
ENCODING 7719
SWIDTH 556 0
DWIDTH 9 0
BBX 8 14 0 0
BITMAP
D8
D8
00
E0
60
60
6C
76
66
66
66
66
66
EF
ENDCHAR
STARTCHAR uni1E28
ENCODING 7720
SWIDTH 778 0
DWIDTH 12 0
BBX 10 15 1 -4
BITMAP
F3C0
6180
6180
6180
6180
7F80
6180
6180
6180
6180
F3C0
0800
0C00
2200
1C00
ENDCHAR
STARTCHAR uni1E29
ENCODING 7721
SWIDTH 556 0
DWIDTH 9 0
BBX 8 15 0 -4
BITMAP
E0
60
60
6C
76
66
66
66
66
66
EF
10
18
44
38
ENDCHAR
STARTCHAR uni1E2A
ENCODING 7722
SWIDTH 778 0
DWIDTH 12 0
BBX 10 14 1 -3
BITMAP
F3C0
6180
6180
6180
6180
7F80
6180
6180
6180
6180
F3C0
0000
1100
0E00
ENDCHAR
STARTCHAR uni1E2B
ENCODING 7723
SWIDTH 556 0
DWIDTH 9 0
BBX 8 14 0 -3
BITMAP
E0
60
60
6C
76
66
66
66
66
66
EF
00
22
1C
ENDCHAR
STARTCHAR uni1E2C
ENCODING 7724
SWIDTH 389 0
DWIDTH 6 0
BBX 5 14 0 -3
BITMAP
78
30
30
30
30
30
30
30
30
30
78
00
68
B0
ENDCHAR
STARTCHAR uni1E2D
ENCODING 7725
SWIDTH 278 0
DWIDTH 5 0
BBX 5 14 -1 -3
BITMAP
30
30
00
70
30
30
30
30
30
30
78
00
68
B0
ENDCHAR
STARTCHAR uni1E2E
ENCODING 7726
SWIDTH 389 0
DWIDTH 6 0
BBX 6 18 0 0
BITMAP
18
10
20
00
CC
CC
00
78
30
30
30
30
30
30
30
30
30
78
ENDCHAR
STARTCHAR uni1E2F
ENCODING 7727
SWIDTH 278 0
DWIDTH 5 0
BBX 5 15 -1 0
BITMAP
18
10
20
00
D8
D8
00
70
30
30
30
30
30
30
78
ENDCHAR
STARTCHAR uni1E30
ENCODING 7728
SWIDTH 778 0
DWIDTH 13 0
BBX 11 15 1 0
BITMAP
0600
0400
0800
0000
FBC0
6100
6200
6400
6800
7800
6C00
6600
6300
6180
FBE0
ENDCHAR
STARTCHAR uni1E31
ENCODING 7729
SWIDTH 556 0
DWIDTH 9 0
BBX 9 15 0 0
BITMAP
1800
1000
2000
0000
E000
6000
6000
6F00
6400
6800
7800
7C00
6E00
6700
F780
ENDCHAR
STARTCHAR uni1E32
ENCODING 7730
SWIDTH 778 0
DWIDTH 13 0
BBX 11 14 1 -3
BITMAP
FBC0
6100
6200
6400
6800
7800
6C00
6600
6300
6180
FBE0
0000
0C00
0C00
ENDCHAR
STARTCHAR uni1E33
ENCODING 7731
SWIDTH 556 0
DWIDTH 9 0
BBX 9 14 0 -3
BITMAP
E000
6000
6000
6F00
6400
6800
7800
7C00
6E00
6700
F780
0000
1800
1800
ENDCHAR
STARTCHAR uni1E34
ENCODING 7732
SWIDTH 778 0
DWIDTH 13 0
BBX 11 13 1 -2
BITMAP
FBC0
6100
6200
6400
6800
7800
6C00
6600
6300
6180
FBE0
0000
1F00
ENDCHAR
STARTCHAR uni1E35
ENCODING 7733
SWIDTH 556 0
DWIDTH 9 0
BBX 9 13 0 -2
BITMAP
E000
6000
6000
6F00
6400
6800
7800
7C00
6E00
6700
F780
0000
3E00
ENDCHAR
STARTCHAR uni1E36
ENCODING 7734
SWIDTH 667 0
DWIDTH 11 0
BBX 9 14 1 -3
BITMAP
F000
6000
6000
6000
6000
6000
6000
6080
6080
6180
FF80
0000
0C00
0C00
ENDCHAR
STARTCHAR uni1E37
ENCODING 7735
SWIDTH 278 0
DWIDTH 5 0
BBX 4 14 0 -3
BITMAP
E0
60
60
60
60
60
60
60
60
60
F0
00
60
60
ENDCHAR
STARTCHAR uni1E38
ENCODING 7736
SWIDTH 667 0
DWIDTH 11 0
BBX 9 16 1 -3
BITMAP
F800
0000
F000
6000
6000
6000
6000
6000
6000
6080
6080
6180
FF80
0000
0C00
0C00
ENDCHAR
STARTCHAR uni1E39
ENCODING 7737
SWIDTH 278 0
DWIDTH 5 0
BBX 5 16 -1 -3
BITMAP
F8
00
70
30
30
30
30
30
30
30
30
30
78
00
30
30
ENDCHAR
STARTCHAR uni1E3A
ENCODING 7738
SWIDTH 667 0
DWIDTH 11 0
BBX 9 13 1 -2
BITMAP
F000
6000
6000
6000
6000
6000
6000
6080
6080
6180
FF80
0000
3E00
ENDCHAR
STARTCHAR uni1E3B
ENCODING 7739
SWIDTH 278 0
DWIDTH 5 0
BBX 5 13 0 -2
BITMAP
E0
60
60
60
60
60
60
60
60
60
F0
00
F8
ENDCHAR
STARTCHAR uni1E3C
ENCODING 7740
SWIDTH 667 0
DWIDTH 11 0
BBX 9 15 1 -4
BITMAP
F000
6000
6000
6000
6000
6000
6000
6080
6080
6180
FF80
0000
0800
1C00
2200
ENDCHAR
STARTCHAR uni1E3D
ENCODING 7741
SWIDTH 278 0
DWIDTH 5 0
BBX 5 15 0 -4
BITMAP
E0
60
60
60
60
60
60
60
60
60
F0
00
20
70
88
ENDCHAR
STARTCHAR uni1E3E
ENCODING 7742
SWIDTH 944 0
DWIDTH 15 0
BBX 14 15 0 0
BITMAP
0180
0100
0200
0000
E01C
7018
7038
7838
5858
4C58
4C98
4698
4718
4318
E23C
ENDCHAR
STARTCHAR uni1E3F
ENCODING 7743
SWIDTH 833 0
DWIDTH 13 0
BBX 12 12 0 0
BITMAP
0300
0200
0400
0000
EDC0
7760
6660
6660
6660
6660
6660
F6F0
ENDCHAR
STARTCHAR uni1E40
ENCODING 7744
SWIDTH 944 0
DWIDTH 15 0
BBX 14 14 0 0
BITMAP
0300
0300
0000
E01C
7018
7038
7838
5858
4C58
4C98
4698
4718
4318
E23C
ENDCHAR
STARTCHAR uni1E41
ENCODING 7745
SWIDTH 833 0
DWIDTH 13 0
BBX 12 11 0 0
BITMAP
0600
0600
0000
EDC0
7760
6660
6660
6660
6660
6660
F6F0
ENDCHAR
STARTCHAR uni1E42
ENCODING 7746
SWIDTH 944 0
DWIDTH 15 0
BBX 14 14 0 -3
BITMAP
E01C
7018
7038
7838
5858
4C58
4C98
4698
4718
4318
E23C
0000
0300
0300
ENDCHAR
STARTCHAR uni1E43
ENCODING 7747
SWIDTH 833 0
DWIDTH 13 0
BBX 12 11 0 -3
BITMAP
EDC0
7760
6660
6660
6660
6660
6660
F6F0
0000
0600
0600
ENDCHAR
STARTCHAR uni1E44
ENCODING 7748
SWIDTH 722 0
DWIDTH 12 0
BBX 10 14 1 0
BITMAP
0C00
0C00
0000
F1C0
7080
5880
5880
4C80
4680
4780
4380
4180
4180
E080
ENDCHAR
STARTCHAR uni1E45
ENCODING 7749
SWIDTH 556 0
DWIDTH 9 0
BBX 8 11 0 0
BITMAP
18
18
00
EC
7E
66
66
66
66
66
F7
ENDCHAR
STARTCHAR uni1E46
ENCODING 7750
SWIDTH 722 0
DWIDTH 12 0
BBX 10 14 1 -3
BITMAP
F1C0
7080
5880
5880
4C80
4680
4780
4380
4180
4180
E080
0000
0C00
0C00
ENDCHAR
STARTCHAR uni1E47
ENCODING 7751
SWIDTH 556 0
DWIDTH 9 0
BBX 8 11 0 -3
BITMAP
EC
7E
66
66
66
66
66
F7
00
18
18
ENDCHAR
STARTCHAR uni1E48
ENCODING 7752
SWIDTH 722 0
DWIDTH 12 0
BBX 10 13 1 -2
BITMAP
F1C0
7080
5880
5880
4C80
4680
4780
4380
4180
4180
E080
0000
3E00
ENDCHAR
STARTCHAR uni1E49
ENCODING 7753
SWIDTH 556 0
DWIDTH 9 0
BBX 8 10 0 -2
BITMAP
EC
7E
66
66
66
66
66
F7
00
7C
ENDCHAR
STARTCHAR uni1E4A
ENCODING 7754
SWIDTH 722 0
DWIDTH 12 0
BBX 10 15 1 -4
BITMAP
F1C0
7080
5880
5880
4C80
4680
4780
4380
4180
4180
E080
0000
0800
1C00
2200
ENDCHAR
STARTCHAR uni1E4B
ENCODING 7755
SWIDTH 556 0
DWIDTH 9 0
BBX 8 12 0 -4
BITMAP
EC
7E
66
66
66
66
66
F7
00
10
38
44
ENDCHAR
STARTCHAR uni1E4C
ENCODING 7756
SWIDTH 778 0
DWIDTH 12 0
BBX 10 18 1 0
BITMAP
0600
0400
0800
0000
1D00
2E00
0000
1E00
6180
4080
C0C0
C0C0
C0C0
C0C0
C0C0
4080
6180
1E00
ENDCHAR
STARTCHAR uni1E4D
ENCODING 7757
SWIDTH 500 0
DWIDTH 8 0
BBX 7 15 0 0
BITMAP
0C
08
10
00
34
58
00
38
6C
C6
C6
C6
C6
6C
38
ENDCHAR
STARTCHAR uni1E4E
ENCODING 7758
SWIDTH 778 0
DWIDTH 12 0
BBX 10 17 1 0
BITMAP
1B00
1B00
0000
1D00
2E00
0000
1E00
6180
4080
C0C0
C0C0
C0C0
C0C0
C0C0
4080
6180
1E00
ENDCHAR
STARTCHAR uni1E4F
ENCODING 7759
SWIDTH 500 0
DWIDTH 8 0
BBX 7 14 0 0
BITMAP
6C
6C
00
34
58
00
38
6C
C6
C6
C6
C6
6C
38
ENDCHAR
STARTCHAR uni1E50
ENCODING 7760
SWIDTH 778 0
DWIDTH 12 0
BBX 10 17 1 0
BITMAP
1800
0800
0400
0000
1F00
0000
1E00
6180
4080
C0C0
C0C0
C0C0
C0C0
C0C0
4080
6180
1E00
ENDCHAR
STARTCHAR uni1E51
ENCODING 7761
SWIDTH 500 0
DWIDTH 8 0
BBX 7 14 0 0
BITMAP
60
20
10
00
7C
00
38
6C
C6
C6
C6
C6
6C
38
ENDCHAR
STARTCHAR uni1E52
ENCODING 7762
SWIDTH 778 0
DWIDTH 12 0
BBX 10 17 1 0
BITMAP
0600
0400
0800
0000
1F00
0000
1E00
6180
4080
C0C0
C0C0
C0C0
C0C0
C0C0
4080
6180
1E00
ENDCHAR
STARTCHAR uni1E53
ENCODING 7763
SWIDTH 500 0
DWIDTH 8 0
BBX 7 14 0 0
BITMAP
0C
08
10
00
7C
00
38
6C
C6
C6
C6
C6
6C
38
ENDCHAR
STARTCHAR uni1E54
ENCODING 7764
SWIDTH 611 0
DWIDTH 10 0
BBX 8 15 1 0
BITMAP
0C
08
10
00
FE
67
63
63
66
7C
60
60
60
60
F0
ENDCHAR
STARTCHAR uni1E55
ENCODING 7765
SWIDTH 556 0
DWIDTH 9 0
BBX 8 16 0 -4
BITMAP
0C
08
10
00
EC
76
63
63
63
63
76
6C
60
60
60
F0
ENDCHAR
STARTCHAR uni1E56
ENCODING 7766
SWIDTH 611 0
DWIDTH 10 0
BBX 8 14 1 0
BITMAP
18
18
00
FE
67
63
63
66
7C
60
60
60
60
F0
ENDCHAR
STARTCHAR uni1E57
ENCODING 7767
SWIDTH 556 0
DWIDTH 9 0
BBX 8 15 0 -4
BITMAP
18
18
00
EC
76
63
63
63
63
76
6C
60
60
60
F0
ENDCHAR
STARTCHAR uni1E58
ENCODING 7768
SWIDTH 722 0
DWIDTH 12 0
BBX 10 14 1 0
BITMAP
1800
1800
0000
FE00
6700
6300
6300
6600
7C00
6C00
6600
6300
6180
F3C0
ENDCHAR
STARTCHAR uni1E59
ENCODING 7769
SWIDTH 444 0
DWIDTH 7 0
BBX 6 11 0 0
BITMAP
30
30
00
EC
7C
60
60
60
60
60
F0
ENDCHAR
STARTCHAR uni1E5A
ENCODING 7770
SWIDTH 722 0
DWIDTH 12 0
BBX 10 14 1 -3
BITMAP
FE00
6700
6300
6300
6600
7C00
6C00
6600
6300
6180
F3C0
0000
0C00
0C00
ENDCHAR
STARTCHAR uni1E5B
ENCODING 7771
SWIDTH 444 0
DWIDTH 7 0
BBX 6 11 0 -3
BITMAP
EC
7C
60
60
60
60
60
F0
00
60
60
ENDCHAR
STARTCHAR uni1E5C
ENCODING 7772
SWIDTH 722 0
DWIDTH 12 0
BBX 10 16 1 -3
BITMAP
3E00
0000
FE00
6700
6300
6300
6600
7C00
6C00
6600
6300
6180
F3C0
0000
0C00
0C00
ENDCHAR
STARTCHAR uni1E5D
ENCODING 7773
SWIDTH 444 0
DWIDTH 7 0
BBX 6 13 0 -3
BITMAP
7C
00
EC
7C
60
60
60
60
60
F0
00
60
60
ENDCHAR
STARTCHAR uni1E5E
ENCODING 7774
SWIDTH 722 0
DWIDTH 12 0
BBX 10 13 1 -2
BITMAP
FE00
6700
6300
6300
6600
7C00
6C00
6600
6300
6180
F3C0
0000
3E00
ENDCHAR
STARTCHAR uni1E5F
ENCODING 7775
SWIDTH 444 0
DWIDTH 7 0
BBX 6 10 0 -2
BITMAP
EC
7C
60
60
60
60
60
F0
00
F8
ENDCHAR
STARTCHAR uni1E60
ENCODING 7776
SWIDTH 556 0
DWIDTH 9 0
BBX 8 14 0 0
BITMAP
18
18
00
3D
43
C1
E0
78
3C
0E
07
83
C2
BC
ENDCHAR
STARTCHAR uni1E61
ENCODING 7777
SWIDTH 389 0
DWIDTH 6 0
BBX 5 11 0 0
BITMAP
60
60
00
78
C8
E0
70
38
98
D8
B0
ENDCHAR
STARTCHAR uni1E62
ENCODING 7778
SWIDTH 556 0
DWIDTH 9 0
BBX 8 14 0 -3
BITMAP
3D
43
C1
E0
78
3C
0E
07
83
C2
BC
00
18
18
ENDCHAR
STARTCHAR uni1E63
ENCODING 7779
SWIDTH 389 0
DWIDTH 6 0
BBX 5 11 0 -3
BITMAP
78
C8
E0
70
38
98
D8
B0
00
30
30
ENDCHAR
STARTCHAR uni1E64
ENCODING 7780
SWIDTH 556 0
DWIDTH 9 0
BBX 8 18 0 0
BITMAP
18
18
00
0C
08
10
00
3D
43
C1
E0
78
3C
0E
07
83
C2
BC
ENDCHAR
STARTCHAR uni1E65
ENCODING 7781
SWIDTH 389 0
DWIDTH 6 0
BBX 5 15 0 0
BITMAP
30
30
00
18
10
20
00
78
C8
E0
70
38
98
D8
B0
ENDCHAR
STARTCHAR uni1E66
ENCODING 7782
SWIDTH 556 0
DWIDTH 9 0
BBX 8 16 0 0
BITMAP
18
18
00
22
1C
08
00
3D
43
C1
F0
7E
0F
83
C2
BC
ENDCHAR
STARTCHAR uni1E67
ENCODING 7783
SWIDTH 389 0
DWIDTH 6 0
BBX 6 15 0 0
BITMAP
30
30
00
44
38
10
00
74
CC
E4
70
38
9C
CC
B8
ENDCHAR
STARTCHAR uni1E68
ENCODING 7784
SWIDTH 556 0
DWIDTH 9 0
BBX 8 17 0 -3
BITMAP
18
18
00
3D
43
C1
E0
78
3C
0E
07
83
C2
BC
00
18
18
ENDCHAR
STARTCHAR uni1E69
ENCODING 7785
SWIDTH 389 0
DWIDTH 6 0
BBX 5 14 0 -3
BITMAP
60
60
00
78
C8
E0
70
38
98
D8
B0
00
30
30
ENDCHAR
STARTCHAR uni1E6A
ENCODING 7786
SWIDTH 667 0
DWIDTH 11 0
BBX 10 14 1 0
BITMAP
0C00
0C00
0000
FFC0
CCC0
8C40
0C00
0C00
0C00
0C00
0C00
0C00
0C00
1E00
ENDCHAR
STARTCHAR uni1E6B
ENCODING 7787
SWIDTH 333 0
DWIDTH 6 0
BBX 5 14 0 0
BITMAP
60
60
00
20
20
60
F0
60
60
60
60
60
68
30
ENDCHAR
STARTCHAR uni1E6C
ENCODING 7788
SWIDTH 667 0
DWIDTH 11 0
BBX 10 14 1 -3
BITMAP
FFC0
CCC0
8C40
0C00
0C00
0C00
0C00
0C00
0C00
0C00
1E00
0000
0C00
0C00
ENDCHAR
STARTCHAR uni1E6D
ENCODING 7789
SWIDTH 333 0
DWIDTH 6 0
BBX 5 14 0 -3
BITMAP
20
20
60
F0
60
60
60
60
60
68
30
00
30
30
ENDCHAR
STARTCHAR uni1E6E
ENCODING 7790
SWIDTH 667 0
DWIDTH 11 0
BBX 10 13 1 -2
BITMAP
FFC0
CCC0
8C40
0C00
0C00
0C00
0C00
0C00
0C00
0C00
1E00
0000
1F00
ENDCHAR
STARTCHAR uni1E6F
ENCODING 7791
SWIDTH 333 0
DWIDTH 6 0
BBX 5 13 0 -2
BITMAP
20
20
60
F0
60
60
60
60
60
68
30
00
F8
ENDCHAR
STARTCHAR uni1E70
ENCODING 7792
SWIDTH 667 0
DWIDTH 11 0
BBX 10 15 1 -4
BITMAP
FFC0
CCC0
8C40
0C00
0C00
0C00
0C00
0C00
0C00
0C00
1E00
0000
0400
0E00
1100
ENDCHAR
STARTCHAR uni1E71
ENCODING 7793
SWIDTH 333 0
DWIDTH 6 0
BBX 5 15 0 -4
BITMAP
20
20
60
F0
60
60
60
60
60
68
30
00
20
70
88
ENDCHAR
STARTCHAR uni1E72
ENCODING 7794
SWIDTH 722 0
DWIDTH 12 0
BBX 10 14 1 -3
BITMAP
F1C0
6080
6080
6080
6080
6080
6080
6080
6080
2100
1E00
0000
3600
3600
ENDCHAR
STARTCHAR uni1E73
ENCODING 7795
SWIDTH 556 0
DWIDTH 9 0
BBX 8 11 0 -3
BITMAP
EE
66
66
66
66
66
6F
36
00
36
36
ENDCHAR
STARTCHAR uni1E74
ENCODING 7796
SWIDTH 722 0
DWIDTH 12 0
BBX 10 14 1 -3
BITMAP
F1C0
6080
6080
6080
6080
6080
6080
6080
6080
2100
1E00
0000
1A00
2C00
ENDCHAR
STARTCHAR uni1E75
ENCODING 7797
SWIDTH 556 0
DWIDTH 9 0
BBX 8 11 0 -3
BITMAP
EE
66
66
66
66
66
6F
36
00
1A
2C
ENDCHAR
STARTCHAR uni1E76
ENCODING 7798
SWIDTH 722 0
DWIDTH 12 0
BBX 10 15 1 -4
BITMAP
F1C0
6080
6080
6080
6080
6080
6080
6080
6080
2100
1E00
0000
0800
1C00
2200
ENDCHAR
STARTCHAR uni1E77
ENCODING 7799
SWIDTH 556 0
DWIDTH 9 0
BBX 8 12 0 -4
BITMAP
EE
66
66
66
66
66
6F
36
00
08
1C
22
ENDCHAR
STARTCHAR uni1E78
ENCODING 7800
SWIDTH 722 0
DWIDTH 12 0
BBX 10 18 1 0
BITMAP
0600
0400
0800
0000
1A00
2C00
0000
F1C0
6080
6080
6080
6080
6080
6080
6080
6080
2100
1E00
ENDCHAR
STARTCHAR uni1E79
ENCODING 7801
SWIDTH 556 0
DWIDTH 9 0
BBX 8 15 0 0
BITMAP
06
04
08
00
1A
2C
00
EE
66
66
66
66
66
6F
36
ENDCHAR
STARTCHAR uni1E7A
ENCODING 7802
SWIDTH 722 0
DWIDTH 12 0
BBX 10 16 1 0
BITMAP
3600
3600
0000
3E00
0000
F1C0
6080
6080
6080
6080
6080
6080
6080
6080
2100
1E00
ENDCHAR
STARTCHAR uni1E7B
ENCODING 7803
SWIDTH 556 0
DWIDTH 9 0
BBX 8 13 0 0
BITMAP
6C
6C
00
7C
00
EE
66
66
66
66
66
6F
36
ENDCHAR
STARTCHAR uni1E7C
ENCODING 7804
SWIDTH 722 0
DWIDTH 12 0
BBX 11 14 0 0
BITMAP
0D00
1600
0000
F8E0
3040
3040
1880
1880
0D00
0D00
0700
0600
0200
0200
ENDCHAR
STARTCHAR uni1E7D
ENCODING 7805
SWIDTH 500 0
DWIDTH 8 0
BBX 8 11 0 0
BITMAP
1A
2C
00
F7
62
62
64
34
38
18
10
ENDCHAR
STARTCHAR uni1E7E
ENCODING 7806
SWIDTH 722 0
DWIDTH 12 0
BBX 11 14 0 -3
BITMAP
F8E0
3040
3040
1880
1880
0D00
0D00
0700
0600
0200
0200
0000
0600
0600
ENDCHAR
STARTCHAR uni1E7F
ENCODING 7807
SWIDTH 500 0
DWIDTH 8 0
BBX 8 11 0 -3
BITMAP
F7
62
62
64
34
38
18
10
00
18
18
ENDCHAR
STARTCHAR Wgrave
ENCODING 7808
SWIDTH 1000 0
DWIDTH 17 0
BBX 17 15 0 0
BITMAP
030000
010000
008000
000000
FBEF80
70C300
30C200
38E200
19E600
1D6400
0D7C00
0F3800
063800
061000
021000
ENDCHAR
STARTCHAR wgrave
ENCODING 7809
SWIDTH 722 0
DWIDTH 12 0
BBX 12 12 0 0
BITMAP
0C00
0400
0200
0000
EF70
6620
6620
7740
3740
3980
1980
1100
ENDCHAR
STARTCHAR Wacute
ENCODING 7810
SWIDTH 1000 0
DWIDTH 17 0
BBX 17 15 0 0
BITMAP
00C000
008000
010000
000000
FBEF80
70C300
30C200
38E200
19E600
1D6400
0D7C00
0F3800
063800
061000
021000
ENDCHAR
STARTCHAR wacute
ENCODING 7811
SWIDTH 722 0
DWIDTH 12 0
BBX 12 12 0 0
BITMAP
0300
0200
0400
0000
EF70
6620
6620
7740
3740
3980
1980
1100
ENDCHAR
STARTCHAR Wdieresis
ENCODING 7812
SWIDTH 1000 0
DWIDTH 17 0
BBX 17 14 0 0
BITMAP
036000
036000
000000
FBEF80
70C300
30C200
38E200
19E600
1D6400
0D7C00
0F3800
063800
061000
021000
ENDCHAR
STARTCHAR wdieresis
ENCODING 7813
SWIDTH 722 0
DWIDTH 12 0
BBX 12 11 0 0
BITMAP
1B00
1B00
0000
EF70
6620
6620
7740
3740
3980
1980
1100
ENDCHAR
STARTCHAR uni1E86
ENCODING 7814
SWIDTH 1000 0
DWIDTH 17 0
BBX 17 14 0 0
BITMAP
018000
018000
000000
FBEF80
70C300
30C200
38E200
19E600
1D6400
0D7C00
0F3800
063800
061000
021000
ENDCHAR
STARTCHAR uni1E87
ENCODING 7815
SWIDTH 722 0
DWIDTH 12 0
BBX 12 11 0 0
BITMAP
0600
0600
0000
EF70
6620
6620
7740
3740
3980
1980
1100
ENDCHAR
STARTCHAR uni1E88
ENCODING 7816
SWIDTH 1000 0
DWIDTH 17 0
BBX 17 14 0 -3
BITMAP
FBEF80
70C300
30C200
38E200
19E600
1D6400
0D7C00
0F3800
063800
061000
021000
000000
00C000
00C000
ENDCHAR
STARTCHAR uni1E89
ENCODING 7817
SWIDTH 722 0
DWIDTH 12 0
BBX 12 11 0 -3
BITMAP
EF70
6620
6620
7740
3740
3980
1980
1100
0000
0600
0600
ENDCHAR
STARTCHAR uni1E8A
ENCODING 7818
SWIDTH 722 0
DWIDTH 12 0
BBX 10 14 1 0
BITMAP
0C00
0C00
0000
FBC0
7100
3A00
3A00
1C00
0E00
1E00
1700
2300
4380
E7C0
ENDCHAR
STARTCHAR uni1E8B
ENCODING 7819
SWIDTH 500 0
DWIDTH 8 0
BBX 7 11 0 0
BITMAP
30
30
00
F6
74
38
38
18
3C
4C
EE
ENDCHAR
STARTCHAR uni1E8C
ENCODING 7820
SWIDTH 722 0
DWIDTH 12 0
BBX 10 14 1 0
BITMAP
3600
3600
0000
FBC0
7100
3A00
3A00
1C00
0E00
1E00
1700
2300
4380
E7C0
ENDCHAR
STARTCHAR uni1E8D
ENCODING 7821
SWIDTH 500 0
DWIDTH 8 0
BBX 7 11 0 0
BITMAP
6C
6C
00
F6
74
38
38
18
3C
4C
EE
ENDCHAR
STARTCHAR uni1E8E
ENCODING 7822
SWIDTH 722 0
DWIDTH 12 0
BBX 11 14 0 0
BITMAP
0C00
0C00
0000
F8E0
7040
3880
1880
1D00
0F00
0600
0600
0600
0600
0F00
ENDCHAR
STARTCHAR uni1E8F
ENCODING 7823
SWIDTH 500 0
DWIDTH 8 0
BBX 8 15 0 -4
BITMAP
18
18
00
F7
62
62
34
34
1C
18
18
10
10
E0
C0
ENDCHAR
STARTCHAR uni1E90
ENCODING 7824
SWIDTH 667 0
DWIDTH 11 0
BBX 10 15 0 0
BITMAP
0400
0E00
1100
0000
FFC0
C1C0
8380
0700
0E00
0E00
1C00
3800
7040
F0C0
FFC0
ENDCHAR
STARTCHAR uni1E91
ENCODING 7825
SWIDTH 444 0
DWIDTH 7 0
BBX 7 12 0 0
BITMAP
10
38
44
00
FE
8C
98
18
30
72
62
FE
ENDCHAR
STARTCHAR uni1E92
ENCODING 7826
SWIDTH 667 0
DWIDTH 11 0
BBX 10 14 0 -3
BITMAP
FFC0
C1C0
8380
0700
0E00
0E00
1C00
3800
7040
F0C0
FFC0
0000
0C00
0C00
ENDCHAR
STARTCHAR uni1E93
ENCODING 7827
SWIDTH 444 0
DWIDTH 7 0
BBX 7 11 0 -3
BITMAP
FE
8C
98
18
30
72
62
FE
00
18
18
ENDCHAR
STARTCHAR uni1E94
ENCODING 7828
SWIDTH 667 0
DWIDTH 11 0
BBX 10 13 0 -2
BITMAP
FFC0
C1C0
8380
0700
0E00
0E00
1C00
3800
7040
F0C0
FFC0
0000
3E00
ENDCHAR
STARTCHAR uni1E95
ENCODING 7829
SWIDTH 444 0
DWIDTH 7 0
BBX 7 10 0 -2
BITMAP
FE
8C
98
18
30
72
62
FE
00
7C
ENDCHAR
STARTCHAR uni1E96
ENCODING 7830
SWIDTH 556 0
DWIDTH 9 0
BBX 8 13 0 -2
BITMAP
E0
60
60
6C
76
66
66
66
66
66
EF
00
3E
ENDCHAR
STARTCHAR uni1E97
ENCODING 7831
SWIDTH 333 0
DWIDTH 6 0
BBX 5 14 0 0
BITMAP
D8
D8
00
20
20
60
F0
60
60
60
60
60
68
30
ENDCHAR
STARTCHAR uni1E98
ENCODING 7832
SWIDTH 722 0
DWIDTH 12 0
BBX 12 13 0 0
BITMAP
0400
0A00
0A00
0400
0000
EF70
6620
6620
7740
3740
3980
1980
1100
ENDCHAR
STARTCHAR uni1E99
ENCODING 7833
SWIDTH 500 0
DWIDTH 8 0
BBX 8 17 0 -4
BITMAP
10
28
28
10
00
F7
62
62
34
34
1C
18
18
10
10
E0
C0
ENDCHAR
STARTCHAR uni1EA0
ENCODING 7840
SWIDTH 722 0
DWIDTH 12 0
BBX 11 14 0 -3
BITMAP
0400
0E00
0E00
1B00
1300
3300
2180
7F80
40C0
C0C0
E1E0
0000
0600
0600
ENDCHAR
STARTCHAR uni1EA1
ENCODING 7841
SWIDTH 500 0
DWIDTH 8 0
BBX 8 11 0 -3
BITMAP
38
CC
CC
1C
6C
CC
CD
76
00
18
18
ENDCHAR
STARTCHAR uni1EA4
ENCODING 7844
SWIDTH 722 0
DWIDTH 12 0
BBX 11 19 0 0
BITMAP
0300
0200
0400
0000
0400
0E00
1100
0000
0400
0E00
0E00
1B00
1300
3300
2180
7F80
40C0
C0C0
E1E0
ENDCHAR
STARTCHAR uni1EA5
ENCODING 7845
SWIDTH 500 0
DWIDTH 8 0
BBX 8 16 0 0
BITMAP
0C
08
10
00
10
38
44
00
38
CC
CC
1C
6C
CC
CD
76
ENDCHAR
STARTCHAR uni1EA6
ENCODING 7846
SWIDTH 722 0
DWIDTH 12 0
BBX 11 19 0 0
BITMAP
1800
0800
0400
0000
0400
0E00
1100
0000
0400
0E00
0E00
1B00
1300
3300
2180
7F80
40C0
C0C0
E1E0
ENDCHAR
STARTCHAR uni1EA7
ENCODING 7847
SWIDTH 500 0
DWIDTH 8 0
BBX 8 16 0 0
BITMAP
30
10
08
00
10
38
44
00
38
CC
CC
1C
6C
CC
CD
76
ENDCHAR
STARTCHAR uni1EAA
ENCODING 7850
SWIDTH 722 0
DWIDTH 12 0
BBX 11 18 0 0
BITMAP
0D00
1600
0000
0400
0E00
1100
0000
0400
0E00
0E00
1B00
1300
3300
2180
7F80
40C0
C0C0
E1E0
ENDCHAR
STARTCHAR uni1EAB
ENCODING 7851
SWIDTH 500 0
DWIDTH 8 0
BBX 8 15 0 0
BITMAP
34
58
00
10
38
44
00
38
CC
CC
1C
6C
CC
CD
76
ENDCHAR
STARTCHAR uni1EAC
ENCODING 7852
SWIDTH 722 0
DWIDTH 12 0
BBX 11 18 0 -3
BITMAP
0400
0E00
1100
0000
0400
0E00
0E00
1B00
1300
3300
2180
7F80
40C0
C0C0
E1E0
0000
0600
0600
ENDCHAR
STARTCHAR uni1EAD
ENCODING 7853
SWIDTH 500 0
DWIDTH 8 0
BBX 8 15 0 -3
BITMAP
10
38
44
00
38
CC
CC
1C
6C
CC
CD
76
00
18
18
ENDCHAR
STARTCHAR uni1EAE
ENCODING 7854
SWIDTH 722 0
DWIDTH 12 0
BBX 11 18 0 0
BITMAP
0300
0200
0400
0000
1100
0E00
0000
0400
0E00
0E00
1B00
1300
3300
2180
7F80
40C0
C0C0
E1E0
ENDCHAR
STARTCHAR uni1EAF
ENCODING 7855
SWIDTH 500 0
DWIDTH 8 0
BBX 8 15 0 0
BITMAP
0C
08
10
00
44
38
00
38
CC
CC
1C
6C
CC
CD
76
ENDCHAR
STARTCHAR uni1EB0
ENCODING 7856
SWIDTH 722 0
DWIDTH 12 0
BBX 11 18 0 0
BITMAP
1800
0800
0400
0000
1100
0E00
0000
0400
0E00
0E00
1B00
1300
3300
2180
7F80
40C0
C0C0
E1E0
ENDCHAR
STARTCHAR uni1EB1
ENCODING 7857
SWIDTH 500 0
DWIDTH 8 0
BBX 8 15 0 0
BITMAP
30
10
08
00
44
38
00
38
CC
CC
1C
6C
CC
CD
76
ENDCHAR
STARTCHAR uni1EB4
ENCODING 7860
SWIDTH 722 0
DWIDTH 12 0
BBX 11 17 0 0
BITMAP
0D00
1600
0000
1100
0E00
0000
0400
0E00
0E00
1B00
1300
3300
2180
7F80
40C0
C0C0
E1E0
ENDCHAR
STARTCHAR uni1EB5
ENCODING 7861
SWIDTH 500 0
DWIDTH 8 0
BBX 8 14 0 0
BITMAP
34
58
00
44
38
00
38
CC
CC
1C
6C
CC
CD
76
ENDCHAR
STARTCHAR uni1EB6
ENCODING 7862
SWIDTH 722 0
DWIDTH 12 0
BBX 11 17 0 -3
BITMAP
1100
0E00
0000
0400
0E00
0E00
1B00
1300
3300
2180
7F80
40C0
C0C0
E1E0
0000
0600
0600
ENDCHAR
STARTCHAR uni1EB7
ENCODING 7863
SWIDTH 500 0
DWIDTH 8 0
BBX 8 14 0 -3
BITMAP
44
38
00
38
CC
CC
1C
6C
CC
CD
76
00
18
18
ENDCHAR
STARTCHAR uni1EB8
ENCODING 7864
SWIDTH 667 0
DWIDTH 10 0
BBX 8 14 1 -3
BITMAP
FF
63
61
60
62
7E
62
60
61
63
FF
00
18
18
ENDCHAR
STARTCHAR uni1EB9
ENCODING 7865
SWIDTH 444 0
DWIDTH 7 0
BBX 6 11 0 -3
BITMAP
38
6C
CC
FC
C0
C0
64
38
00
30
30
ENDCHAR
STARTCHAR uni1EBC
ENCODING 7868
SWIDTH 667 0
DWIDTH 10 0
BBX 8 14 1 0
BITMAP
1A
2C
00
FF
63
61
60
62
7E
62
60
61
63
FF
ENDCHAR
STARTCHAR uni1EBD
ENCODING 7869
SWIDTH 444 0
DWIDTH 7 0
BBX 6 11 0 0
BITMAP
34
58
00
38
6C
CC
FC
C0
C0
64
38
ENDCHAR
STARTCHAR uni1EBE
ENCODING 7870
SWIDTH 667 0
DWIDTH 10 0
BBX 8 19 1 0
BITMAP
06
04
08
00
08
1C
22
00
FF
63
61
60
62
7E
62
60
61
63
FF
ENDCHAR
STARTCHAR uni1EBF
ENCODING 7871
SWIDTH 444 0
DWIDTH 7 0
BBX 6 16 0 0
BITMAP
0C
08
10
00
10
38
44
00
38
6C
CC
FC
C0
C0
64
38
ENDCHAR
STARTCHAR uni1EC0
ENCODING 7872
SWIDTH 667 0
DWIDTH 10 0
BBX 8 19 1 0
BITMAP
30
10
08
00
08
1C
22
00
FF
63
61
60
62
7E
62
60
61
63
FF
ENDCHAR
STARTCHAR uni1EC1
ENCODING 7873
SWIDTH 444 0
DWIDTH 7 0
BBX 6 16 0 0
BITMAP
60
20
10
00
10
38
44
00
38
6C
CC
FC
C0
C0
64
38
ENDCHAR
STARTCHAR uni1EC4
ENCODING 7876
SWIDTH 667 0
DWIDTH 10 0
BBX 8 18 1 0
BITMAP
1A
2C
00
08
1C
22
00
FF
63
61
60
62
7E
62
60
61
63
FF
ENDCHAR
STARTCHAR uni1EC5
ENCODING 7877
SWIDTH 444 0
DWIDTH 7 0
BBX 6 15 0 0
BITMAP
34
58
00
10
38
44
00
38
6C
CC
FC
C0
C0
64
38
ENDCHAR
STARTCHAR uni1EC6
ENCODING 7878
SWIDTH 667 0
DWIDTH 10 0
BBX 8 18 1 -3
BITMAP
10
38
44
00
FF
63
61
60
62
7E
62
60
61
63
FF
00
18
18
ENDCHAR
STARTCHAR uni1EC7
ENCODING 7879
SWIDTH 444 0
DWIDTH 7 0
BBX 6 15 0 -3
BITMAP
10
38
44
00
38
6C
CC
FC
C0
C0
64
38
00
30
30
ENDCHAR
STARTCHAR uni1ECA
ENCODING 7882
SWIDTH 389 0
DWIDTH 6 0
BBX 4 14 1 -3
BITMAP
F0
60
60
60
60
60
60
60
60
60
F0
00
60
60
ENDCHAR
STARTCHAR uni1ECB
ENCODING 7883
SWIDTH 278 0
DWIDTH 5 0
BBX 4 14 0 -3
BITMAP
60
60
00
E0
60
60
60
60
60
60
F0
00
60
60
ENDCHAR
STARTCHAR uni1ECC
ENCODING 7884
SWIDTH 778 0
DWIDTH 12 0
BBX 10 14 1 -3
BITMAP
1E00
6180
4080
C0C0
C0C0
C0C0
C0C0
C0C0
4080
6180
1E00
0000
0C00
0C00
ENDCHAR
STARTCHAR uni1ECD
ENCODING 7885
SWIDTH 500 0
DWIDTH 8 0
BBX 7 11 0 -3
BITMAP
38
6C
C6
C6
C6
C6
6C
38
00
18
18
ENDCHAR
STARTCHAR uni1ED0
ENCODING 7888
SWIDTH 778 0
DWIDTH 12 0
BBX 10 19 1 0
BITMAP
0300
0200
0400
0000
0400
0E00
1100
0000
1E00
6180
4080
C0C0
C0C0
C0C0
C0C0
C0C0
4080
6180
1E00
ENDCHAR
STARTCHAR uni1ED1
ENCODING 7889
SWIDTH 500 0
DWIDTH 8 0
BBX 7 16 0 0
BITMAP
0C
08
10
00
10
38
44
00
38
6C
C6
C6
C6
C6
6C
38
ENDCHAR
STARTCHAR uni1ED2
ENCODING 7890
SWIDTH 778 0
DWIDTH 12 0
BBX 10 19 1 0
BITMAP
1800
0800
0400
0000
0400
0E00
1100
0000
1E00
6180
4080
C0C0
C0C0
C0C0
C0C0
C0C0
4080
6180
1E00
ENDCHAR
STARTCHAR uni1ED3
ENCODING 7891
SWIDTH 500 0
DWIDTH 8 0
BBX 7 16 0 0
BITMAP
60
20
10
00
10
38
44
00
38
6C
C6
C6
C6
C6
6C
38
ENDCHAR
STARTCHAR uni1ED6
ENCODING 7894
SWIDTH 778 0
DWIDTH 12 0
BBX 10 18 1 0
BITMAP
0D00
1600
0000
0400
0E00
1100
0000
1E00
6180
4080
C0C0
C0C0
C0C0
C0C0
C0C0
4080
6180
1E00
ENDCHAR
STARTCHAR uni1ED7
ENCODING 7895
SWIDTH 500 0
DWIDTH 8 0
BBX 7 15 0 0
BITMAP
34
58
00
10
38
44
00
38
6C
C6
C6
C6
C6
6C
38
ENDCHAR
STARTCHAR uni1ED8
ENCODING 7896
SWIDTH 778 0
DWIDTH 12 0
BBX 10 18 1 -3
BITMAP
0400
0E00
1100
0000
1E00
6180
4080
C0C0
C0C0
C0C0
C0C0
C0C0
4080
6180
1E00
0000
0C00
0C00
ENDCHAR
STARTCHAR uni1ED9
ENCODING 7897
SWIDTH 500 0
DWIDTH 8 0
BBX 7 15 0 -3
BITMAP
10
38
44
00
38
6C
C6
C6
C6
C6
6C
38
00
18
18
ENDCHAR
STARTCHAR uni1EDA
ENCODING 7898
SWIDTH 778 0
DWIDTH 12 0
BBX 11 15 1 0
BITMAP
0300
0200
0400
0000
1E60
61E0
40A0
C0E0
C0C0
C0C0
C0C0
C0C0
4080
6180
1E00
ENDCHAR
STARTCHAR uni1EDB
ENCODING 7899
SWIDTH 500 0
DWIDTH 8 0
BBX 9 12 0 0
BITMAP
0600
0400
0800
0000
3980
6D80
C680
C680
C700
C600
6C00
3800
ENDCHAR
STARTCHAR uni1EDC
ENCODING 7900
SWIDTH 778 0
DWIDTH 12 0
BBX 11 15 1 0
BITMAP
0C00
0400
0200
0000
1E60
61E0
40A0
C0E0
C0C0
C0C0
C0C0
C0C0
4080
6180
1E00
ENDCHAR
STARTCHAR uni1EDD
ENCODING 7901
SWIDTH 500 0
DWIDTH 8 0
BBX 9 12 0 0
BITMAP
1800
0800
0400
0000
3980
6D80
C680
C680
C700
C600
6C00
3800
ENDCHAR
STARTCHAR uni1EE0
ENCODING 7904
SWIDTH 778 0
DWIDTH 12 0
BBX 11 14 1 0
BITMAP
0680
0B00
0000
1E60
61E0
40A0
C0E0
C0C0
C0C0
C0C0
C0C0
4080
6180
1E00
ENDCHAR
STARTCHAR uni1EE1
ENCODING 7905
SWIDTH 500 0
DWIDTH 8 0
BBX 9 11 0 0
BITMAP
0D00
1600
0000
3980
6D80
C680
C680
C700
C600
6C00
3800
ENDCHAR
STARTCHAR uni1EE2
ENCODING 7906
SWIDTH 778 0
DWIDTH 12 0
BBX 11 14 1 -3
BITMAP
1E60
61E0
40A0
C0E0
C0C0
C0C0
C0C0
C0C0
4080
6180
1E00
0000
0C00
0C00
ENDCHAR
STARTCHAR uni1EE3
ENCODING 7907
SWIDTH 500 0
DWIDTH 8 0
BBX 9 11 0 -3
BITMAP
3980
6D80
C680
C680
C700
C600
6C00
3800
0000
1800
1800
ENDCHAR
STARTCHAR uni1EE4
ENCODING 7908
SWIDTH 722 0
DWIDTH 12 0
BBX 10 14 1 -3
BITMAP
F1C0
6080
6080
6080
6080
6080
6080
6080
6080
2100
1E00
0000
0C00
0C00
ENDCHAR
STARTCHAR uni1EE5
ENCODING 7909
SWIDTH 556 0
DWIDTH 9 0
BBX 8 11 0 -3
BITMAP
EE
66
66
66
66
66
6F
36
00
18
18
ENDCHAR
STARTCHAR uni1EE8
ENCODING 7912
SWIDTH 722 0
DWIDTH 12 0
BBX 11 15 1 0
BITMAP
0300
0200
0400
0000
F1E0
60E0
60A0
60A0
60C0
6080
6080
6080
6080
2100
1E00
ENDCHAR
STARTCHAR uni1EE9
ENCODING 7913
SWIDTH 556 0
DWIDTH 9 0
BBX 10 12 0 0
BITMAP
0600
0400
0800
0000
EEC0
66C0
6640
6640
6680
6600
6F00
3600
ENDCHAR
STARTCHAR uni1EEA
ENCODING 7914
SWIDTH 722 0
DWIDTH 12 0
BBX 11 15 1 0
BITMAP
0C00
0400
0200
0000
F1E0
60E0
60A0
60A0
60C0
6080
6080
6080
6080
2100
1E00
ENDCHAR
STARTCHAR uni1EEB
ENCODING 7915
SWIDTH 556 0
DWIDTH 9 0
BBX 10 12 0 0
BITMAP
1800
0800
0400
0000
EEC0
66C0
6640
6640
6680
6600
6F00
3600
ENDCHAR
STARTCHAR uni1EEE
ENCODING 7918
SWIDTH 722 0
DWIDTH 12 0
BBX 11 14 1 0
BITMAP
0D00
1600
0000
F1E0
60E0
60A0
60A0
60C0
6080
6080
6080
6080
2100
1E00
ENDCHAR
STARTCHAR uni1EEF
ENCODING 7919
SWIDTH 556 0
DWIDTH 9 0
BBX 10 11 0 0
BITMAP
0D00
1600
0000
EEC0
66C0
6640
6640
6680
6600
6F00
3600
ENDCHAR
STARTCHAR uni1EF0
ENCODING 7920
SWIDTH 722 0
DWIDTH 12 0
BBX 11 14 1 -3
BITMAP
F1E0
60E0
60A0
60A0
60C0
6080
6080
6080
6080
2100
1E00
0000
0C00
0C00
ENDCHAR
STARTCHAR uni1EF1
ENCODING 7921
SWIDTH 556 0
DWIDTH 9 0
BBX 10 11 0 -3
BITMAP
EEC0
66C0
6640
6640
6680
6600
6F00
3600
0000
0C00
0C00
ENDCHAR
STARTCHAR Ygrave
ENCODING 7922
SWIDTH 722 0
DWIDTH 12 0
BBX 11 15 0 0
BITMAP
1800
0800
0400
0000
F8E0
7040
3880
1880
1D00
0F00
0600
0600
0600
0600
0F00
ENDCHAR
STARTCHAR ygrave
ENCODING 7923
SWIDTH 500 0
DWIDTH 8 0
BBX 8 16 0 -4
BITMAP
30
10
08
00
F7
62
62
34
34
1C
18
18
10
10
E0
C0
ENDCHAR
STARTCHAR uni1EF4
ENCODING 7924
SWIDTH 722 0
DWIDTH 12 0
BBX 11 14 0 -3
BITMAP
F8E0
7040
3880
1880
1D00
0F00
0600
0600
0600
0600
0F00
0000
0600
0600
ENDCHAR
STARTCHAR uni1EF5
ENCODING 7925
SWIDTH 500 0
DWIDTH 8 0
BBX 8 15 0 -7
BITMAP
F7
62
62
34
34
1C
18
18
10
10
E0
C0
00
30
30
ENDCHAR
STARTCHAR uni1EF8
ENCODING 7928
SWIDTH 722 0
DWIDTH 12 0
BBX 11 14 0 0
BITMAP
0D00
1600
0000
F8E0
7040
3880
1880
1D00
0F00
0600
0600
0600
0600
0F00
ENDCHAR
STARTCHAR uni1EF9
ENCODING 7929
SWIDTH 500 0
DWIDTH 8 0
BBX 8 15 0 -4
BITMAP
1A
2C
00
F7
62
62
34
34
1C
18
18
10
10
E0
C0
ENDCHAR
STARTCHAR uni2000
ENCODING 8192
SWIDTH 500 0
DWIDTH 8 0
BBX 1 1 0 0
BITMAP
00
ENDCHAR
STARTCHAR uni2001
ENCODING 8193
SWIDTH 1000 0
DWIDTH 17 0
BBX 1 1 0 0
BITMAP
00
ENDCHAR
STARTCHAR uni2002
ENCODING 8194
SWIDTH 500 0
DWIDTH 8 0
BBX 1 1 0 0
BITMAP
00
ENDCHAR
STARTCHAR uni2003
ENCODING 8195
SWIDTH 1000 0
DWIDTH 17 0
BBX 1 1 0 0
BITMAP
00
ENDCHAR
STARTCHAR uni2004
ENCODING 8196
SWIDTH 333 0
DWIDTH 6 0
BBX 1 1 0 0
BITMAP
00
ENDCHAR
STARTCHAR uni2005
ENCODING 8197
SWIDTH 250 0
DWIDTH 4 0
BBX 1 1 0 0
BITMAP
00
ENDCHAR
STARTCHAR uni2006
ENCODING 8198
SWIDTH 167 0
DWIDTH 3 0
BBX 1 1 0 0
BITMAP
00
ENDCHAR
STARTCHAR uni2007
ENCODING 8199
SWIDTH 500 0
DWIDTH 8 0
BBX 1 1 0 0
BITMAP
00
ENDCHAR
STARTCHAR uni2008
ENCODING 8200
SWIDTH 250 0
DWIDTH 4 0
BBX 1 1 0 0
BITMAP
00
ENDCHAR
STARTCHAR uni2009
ENCODING 8201
SWIDTH 200 0
DWIDTH 3 0
BBX 1 1 0 0
BITMAP
00
ENDCHAR
STARTCHAR uni200A
ENCODING 8202
SWIDTH 100 0
DWIDTH 2 0
BBX 1 1 0 0
BITMAP
00
ENDCHAR
STARTCHAR uni200B
ENCODING 8203
SWIDTH 0 0
DWIDTH 0 0
BBX 1 1 0 0
BITMAP
00
ENDCHAR
STARTCHAR uni2010
ENCODING 8208
SWIDTH 333 0
DWIDTH 5 0
BBX 4 2 0 3
BITMAP
F0
F0
ENDCHAR
STARTCHAR uni2011
ENCODING 8209
SWIDTH 333 0
DWIDTH 5 0
BBX 4 2 0 3
BITMAP
F0
F0
ENDCHAR
STARTCHAR figuredash
ENCODING 8210
SWIDTH 500 0
DWIDTH 8 0
BBX 8 2 0 3
BITMAP
FF
FF
ENDCHAR
STARTCHAR endash
ENCODING 8211
SWIDTH 500 0
DWIDTH 8 0
BBX 8 2 0 3
BITMAP
FF
FF
ENDCHAR
STARTCHAR emdash
ENCODING 8212
SWIDTH 1000 0
DWIDTH 16 0
BBX 16 2 0 3
BITMAP
FFFF
FFFF
ENDCHAR
STARTCHAR afii00208
ENCODING 8213
SWIDTH 1000 0
DWIDTH 16 0
BBX 16 2 0 3
BITMAP
FFFF
FFFF
ENDCHAR
STARTCHAR quoteleft
ENCODING 8216
SWIDTH 333 0
DWIDTH 6 0
BBX 2 5 1 6
BITMAP
40
80
80
C0
C0
ENDCHAR
STARTCHAR quoteright
ENCODING 8217
SWIDTH 333 0
DWIDTH 6 0
BBX 2 5 2 6
BITMAP
C0
C0
40
40
80
ENDCHAR
STARTCHAR quotesinglbase
ENCODING 8218
SWIDTH 333 0
DWIDTH 6 0
BBX 2 5 2 -3
BITMAP
C0
C0
40
40
80
ENDCHAR
STARTCHAR quotereversed
ENCODING 8219
SWIDTH 333 0
DWIDTH 6 0
BBX 2 5 2 6
BITMAP
C0
C0
80
80
40
ENDCHAR
STARTCHAR quotedblleft
ENCODING 8220
SWIDTH 500 0
DWIDTH 8 0
BBX 6 5 1 6
BITMAP
44
88
88
CC
CC
ENDCHAR
STARTCHAR quotedblright
ENCODING 8221
SWIDTH 500 0
DWIDTH 8 0
BBX 6 5 1 6
BITMAP
CC
CC
44
44
88
ENDCHAR
STARTCHAR quotedblbase
ENCODING 8222
SWIDTH 500 0
DWIDTH 8 0
BBX 6 5 1 -3
BITMAP
CC
CC
44
44
88
ENDCHAR
STARTCHAR uni201F
ENCODING 8223
SWIDTH 500 0
DWIDTH 8 0
BBX 6 5 1 6
BITMAP
CC
CC
88
88
44
ENDCHAR
STARTCHAR dagger
ENCODING 8224
SWIDTH 500 0
DWIDTH 8 0
BBX 7 15 0 -4
BITMAP
38
38
D6
FE
D6
10
38
38
10
10
10
10
10
10
10
ENDCHAR
STARTCHAR daggerdbl
ENCODING 8225
SWIDTH 500 0
DWIDTH 8 0
BBX 7 15 0 -4
BITMAP
38
38
D6
FE
D6
38
38
10
D6
FE
D6
10
10
38
38
ENDCHAR
STARTCHAR bullet
ENCODING 8226
SWIDTH 350 0
DWIDTH 6 0
BBX 4 4 1 3
BITMAP
60
F0
F0
60
ENDCHAR
STARTCHAR ellipsis
ENCODING 8230
SWIDTH 1000 0
DWIDTH 15 0
BBX 12 2 1 0
BITMAP
C630
C630
ENDCHAR
STARTCHAR perthousand
ENCODING 8240
SWIDTH 1000 0
DWIDTH 17 0
BBX 17 12 0 0
BITMAP
008000
3F0000
490000
C90000
CA0000
D20000
64C300
092480
0B2C80
132C80
134D00
218600
ENDCHAR
STARTCHAR guilsinglleft
ENCODING 8249
SWIDTH 333 0
DWIDTH 6 0
BBX 4 7 1 0
BITMAP
10
30
60
C0
60
30
10
ENDCHAR
STARTCHAR guilsinglright
ENCODING 8250
SWIDTH 333 0
DWIDTH 6 0
BBX 4 7 0 0
BITMAP
80
C0
60
30
60
C0
80
ENDCHAR
STARTCHAR fraction
ENCODING 8260
SWIDTH 167 0
DWIDTH 3 0
BBX 7 11 -2 1
BITMAP
02
04
04
08
10
10
20
20
40
80
80
ENDCHAR
STARTCHAR oneinferior
ENCODING 8321
SWIDTH 300 0
DWIDTH 5 0
BBX 4 7 1 -4
BITMAP
60
E0
60
60
60
60
F0
ENDCHAR
STARTCHAR twoinferior
ENCODING 8322
SWIDTH 300 0
DWIDTH 5 0
BBX 4 7 0 -4
BITMAP
60
F0
B0
20
40
F0
F0
ENDCHAR
STARTCHAR threeinferior
ENCODING 8323
SWIDTH 300 0
DWIDTH 5 0
BBX 4 7 0 -4
BITMAP
60
B0
30
60
30
B0
60
ENDCHAR
STARTCHAR uni20A5
ENCODING 8357
SWIDTH 833 0
DWIDTH 13 0
BBX 12 11 0 -1
BITMAP
0100
0300
EFC0
7760
6660
6660
6660
6660
6E60
FEF0
0800
ENDCHAR
STARTCHAR uni20A6
ENCODING 8358
SWIDTH 722 0
DWIDTH 12 0
BBX 10 11 1 0
BITMAP
F1C0
7080
5880
7F80
7F80
4680
7F80
7F80
4180
4180
E080
ENDCHAR
STARTCHAR uni20A9
ENCODING 8361
SWIDTH 1000 0
DWIDTH 17 0
BBX 17 11 0 0
BITMAP
FBEF80
70C300
30C200
3FF200
1FF600
1D6400
0FFC00
0FF800
063800
061000
021000
ENDCHAR
STARTCHAR Euro
ENCODING 8364
SWIDTH 722 0
DWIDTH 11 0
BBX 10 11 0 0
BITMAP
0F40
31C0
20C0
FE40
FE00
6000
FE00
FE00
3040
3980
1F00
ENDCHAR
STARTCHAR uni20AD
ENCODING 8365
SWIDTH 778 0
DWIDTH 13 0
BBX 11 11 1 0
BITMAP
FBC0
6100
6200
6400
6800
FFE0
6C00
6600
6300
6180
FBE0
ENDCHAR
STARTCHAR uni2103
ENCODING 8451
SWIDTH 1102 0
DWIDTH 18 0
BBX 16 11 1 0
BITMAP
603D
90C7
9083
9181
6180
0180
0180
0180
00C1
00E6
007C
ENDCHAR
STARTCHAR uni2109
ENCODING 8457
SWIDTH 991 0
DWIDTH 17 0
BBX 15 11 1 0
BITMAP
61FE
90C6
90C2
90C0
60C4
00FC
00C4
00C0
00C0
00C0
01F0
ENDCHAR
STARTCHAR trademark
ENCODING 8482
SWIDTH 1000 0
DWIDTH 17 0
BBX 16 7 0 4
BITMAP
FD8F
B58E
31D6
3176
3126
3126
7B8F
ENDCHAR
STARTCHAR uni212A
ENCODING 8490
SWIDTH 778 0
DWIDTH 13 0
BBX 11 11 1 0
BITMAP
FBC0
6100
6200
6400
6800
7800
6C00
6600
6300
6180
FBE0
ENDCHAR
STARTCHAR uni212B
ENCODING 8491
SWIDTH 722 0
DWIDTH 12 0
BBX 11 16 0 0
BITMAP
0600
0900
0900
0600
0000
0400
0E00
0E00
1B00
1300
3300
2180
7F80
40C0
C0C0
E1E0
ENDCHAR
STARTCHAR uni2132
ENCODING 8498
SWIDTH 611 0
DWIDTH 10 0
BBX 8 11 1 0
BITMAP
1F
06
06
06
46
7E
46
06
86
C6
FF
ENDCHAR
STARTCHAR universal
ENCODING 8704
SWIDTH 722 0
DWIDTH 12 0
BBX 11 11 0 0
BITMAP
E1E0
C0C0
40C0
7F80
2180
3300
1300
1B00
0E00
0E00
0400
ENDCHAR
STARTCHAR existential
ENCODING 8707
SWIDTH 667 0
DWIDTH 10 0
BBX 8 11 1 0
BITMAP
FF
C6
86
06
46
7E
46
06
86
C6
FF
ENDCHAR
STARTCHAR uni2204
ENCODING 8708
SWIDTH 667 0
DWIDTH 10 0
BBX 8 11 1 0
BITMAP
FF
CE
8E
0E
5E
7E
56
16
B6
E6
FF
ENDCHAR
STARTCHAR minus
ENCODING 8722
SWIDTH 570 0
DWIDTH 9 0
BBX 7 2 1 3
BITMAP
FE
FE
ENDCHAR
STARTCHAR fraction
ENCODING 8725
SWIDTH 167 0
DWIDTH 3 0
BBX 7 11 -2 1
BITMAP
02
04
04
08
10
10
20
20
40
80
80
ENDCHAR
STARTCHAR periodcentered
ENCODING 8729
SWIDTH 250 0
DWIDTH 4 0
BBX 2 2 1 4
BITMAP
C0
C0
ENDCHAR
STARTCHAR uni2236
ENCODING 8758
SWIDTH 333 0
DWIDTH 5 0
BBX 2 7 1 0
BITMAP
C0
C0
00
00
00
C0
C0
ENDCHAR
STARTCHAR uni2259
ENCODING 8793
SWIDTH 570 0
DWIDTH 9 0
BBX 7 9 1 2
BITMAP
10
38
44
00
FE
FE
00
FE
FE
ENDCHAR
STARTCHAR uni225A
ENCODING 8794
SWIDTH 570 0
DWIDTH 9 0
BBX 7 9 1 2
BITMAP
44
38
10
00
FE
FE
00
FE
FE
ENDCHAR
STARTCHAR notequal
ENCODING 8800
SWIDTH 570 0
DWIDTH 9 0
BBX 7 11 1 -1
BITMAP
04
0C
08
FE
FE
10
FE
FE
30
20
20
ENDCHAR
STARTCHAR equivalence
ENCODING 8801
SWIDTH 570 0
DWIDTH 9 0
BBX 7 5 0 1
BITMAP
FE
00
FE
00
FE
ENDCHAR
STARTCHAR uni2262
ENCODING 8802
SWIDTH 570 0
DWIDTH 9 0
BBX 7 11 0 -2
BITMAP
04
0C
08
FE
18
FE
10
FE
30
20
20
ENDCHAR
STARTCHAR lessequal
ENCODING 8804
SWIDTH 570 0
DWIDTH 9 0
BBX 8 10 0 -2
BITMAP
03
0E
38
C0
C0
38
0E
03
00
FF
ENDCHAR
STARTCHAR greaterequal
ENCODING 8805
SWIDTH 570 0
DWIDTH 9 0
BBX 8 10 0 -2
BITMAP
C0
70
1C
03
03
1C
70
C0
00
FF
ENDCHAR
STARTCHAR uni226E
ENCODING 8814
SWIDTH 570 0
DWIDTH 9 0
BBX 8 11 0 -1
BITMAP
04
0C
0B
0E
38
D0
D0
38
3E
23
20
ENDCHAR
STARTCHAR uni226F
ENCODING 8815
SWIDTH 570 0
DWIDTH 9 0
BBX 8 11 0 -1
BITMAP
04
0C
C8
78
1C
13
13
1C
70
E0
20
ENDCHAR
STARTCHAR uni2270
ENCODING 8816
SWIDTH 570 0
DWIDTH 9 0
BBX 8 11 0 -2
BITMAP
04
0F
0E
38
D8
D0
38
1E
33
20
FF
ENDCHAR
STARTCHAR uni2271
ENCODING 8817
SWIDTH 570 0
DWIDTH 9 0
BBX 8 11 0 -2
BITMAP
04
CC
78
1C
1B
13
1C
70
F0
20
FF
ENDCHAR
STARTCHAR fi
ENCODING -1
SWIDTH 556 0
DWIDTH 9 0
BBX 8 11 0 0
BITMAP
18
26
60
FE
66
66
66
66
66
66
EF
ENDCHAR
STARTCHAR fl
ENCODING -1
SWIDTH 556 0
DWIDTH 9 0
BBX 8 11 0 0
BITMAP
1E
26
66
FE
66
66
66
66
66
66
F7
ENDCHAR
ENDFONT
